<?xml version="1.0" encoding="UTF-8" standalone="no"?><!DOCTYPE svg PUBLIC "-//W3C//DTD SVG 1.1//EN" "//www.w3.org/Graphics/SVG/1.1/DTD/svg11.dtd"><svg width="100%" height="100%" viewBox="0 0 40 40" version="1.1" xmlns="//www.w3.org/2000/svg" xmlns:xlink="//www.w3.org/1999/xlink" xml:space="preserve" xmlns:serif="//www.serif.com/" style="fill-rule:evenodd;clip-rule:evenodd;stroke-linejoin:round;stroke-miterlimit:1.41421;"><g><path d="M16.599,13.209c-0.403,-0.525 -0.637,-1.178 -0.637,-1.872c0,-1.693 1.374,-3.067 3.067,-3.067c1.693,0 3.067,1.374 3.067,3.067c0,0.689 -0.23,1.337 -0.627,1.859l5.23,7.169l5.192,-3.427c-0.02,-0.144 -0.031,-0.29 -0.031,-0.436c0,-1.693 1.374,-3.067 3.067,-3.067c1.693,0 3.067,1.374 3.067,3.067c0,1.488 -1.062,2.73 -2.469,3.009l-1.71,6.689c0.752,0.559 1.24,1.454 1.24,2.463c0,1.693 -1.375,3.067 -3.067,3.067c-1.693,0 -3.068,-1.374 -3.068,-3.067c0,-0.562 0.154,-1.099 0.428,-1.563l-3.114,-4.263l-4.472,2.961c2.242,0.201 4.539,0.639 6.982,1.313c-0.316,0.458 -0.426,1.026 -0.371,1.677c-6.795,-1.796 -12.315,-1.771 -18.705,-0.002c0.03,-0.601 -0.035,-1.179 -0.301,-1.683c2.403,-0.689 4.685,-1.129 6.946,-1.321l-4.498,-2.972l-3.097,4.257c0.287,0.472 0.448,1.021 0.448,1.596c0,1.693 -1.375,3.067 -3.067,3.067c-1.693,0 -3.067,-1.374 -3.067,-3.067c0,-0.968 0.45,-1.836 1.157,-2.4l-1.697,-6.748c-1.418,-0.27 -2.492,-1.517 -2.492,-3.013c0,-1.693 1.374,-3.067 3.067,-3.067c1.693,0 3.067,1.374 3.067,3.067c0,0.142 -0.01,0.284 -0.029,0.423l5.27,3.482l5.224,-7.198Zm14.117,12.663l0.006,-0.003l0.633,1.397c-0.549,0.249 -0.901,0.795 -0.901,1.397c0,0.846 0.687,1.533 1.534,1.533c0.846,0 1.533,-0.687 1.533,-1.533c0,-0.847 -0.687,-1.534 -1.533,-1.534l0,-1.53l-0.001,0l0.001,-0.002l0,-0.001l0,0l1.611,-6.33l-0.003,-0.001l0.666,-1.382c0.207,0.1 0.435,0.152 0.665,0.152c0.847,0 1.534,-0.687 1.534,-1.533c0,-0.847 -0.687,-1.534 -1.534,-1.534c-0.846,0 -1.533,0.687 -1.533,1.534c0,0.384 0.144,0.754 0.404,1.037l-1.124,1.033l0,0l-0.003,0.002l-0.002,0.003l-0.001,-0.001l-4.905,3.248l2.953,4.048Zm-20.377,-4.038l-4.982,-3.293l0.001,-0.002l-1.145,-1.018c0.25,-0.281 0.388,-0.643 0.388,-1.019c0,-0.847 -0.688,-1.534 -1.534,-1.534c-0.846,0 -1.533,0.687 -1.533,1.534c0,0.846 0.687,1.533 1.533,1.533c0.22,0 0.438,-0.047 0.638,-0.139l0.636,1.389l0.001,0l1.587,6.316l0.001,0l0,0.004l0,0.001c0.001,0 0.001,0.001 0,0.001l0.084,1.525c-0.813,0.045 -1.449,0.717 -1.449,1.531c0,0.846 0.687,1.533 1.534,1.533c0.846,0 1.533,-0.687 1.533,-1.533c0,-0.595 -0.344,-1.137 -0.884,-1.389l0.65,-1.389l0,0l2.941,-4.051Zm14.828,-0.458l-5.201,-7.121l0.001,-0.001l-0.468,-1.457c0.634,-0.204 1.064,-0.794 1.064,-1.46c0,-0.846 -0.688,-1.533 -1.534,-1.533c-0.846,0 -1.533,0.687 -1.533,1.533c0,0.658 0.419,1.242 1.041,1.453l-0.49,1.45l0.002,0.001l-5.196,7.142l6.15,4.063l6.164,-4.07Z" style="fill:#fefffe;"/></g></svg>