<?xml version="1.0" encoding="UTF-8" standalone="no"?><!DOCTYPE svg PUBLIC "-//W3C//DTD SVG 1.1//EN" "http://www.w3.org/Graphics/SVG/1.1/DTD/svg11.dtd"><svg width="100%" height="100%" viewBox="0 0 30 30" version="1.1" xmlns="http://www.w3.org/2000/svg" xmlns:xlink="http://www.w3.org/1999/xlink" xml:space="preserve" xmlns:serif="http://www.serif.com/" style="fill-rule:evenodd;clip-rule:evenodd;stroke-linejoin:round;stroke-miterlimit:1.41421;"><g><path d="M13.104,9.629c-0.32,-0.415 -0.504,-0.932 -0.504,-1.481c0,-1.338 1.086,-2.425 2.425,-2.425c1.339,0 2.426,1.087 2.426,2.425c0,0.545 -0.182,1.058 -0.496,1.47l4.136,5.671l4.107,-2.711c-0.016,-0.114 -0.025,-0.229 -0.025,-0.345c0,-1.338 1.087,-2.425 2.426,-2.425c1.339,0 2.426,1.087 2.426,2.425c0,1.177 -0.84,2.16 -1.953,2.38l-1.353,5.29c0.595,0.442 0.981,1.15 0.981,1.949c0,1.338 -1.087,2.425 -2.426,2.425c-1.339,0 -2.426,-1.087 -2.426,-2.425c0,-0.445 0.122,-0.869 0.339,-1.236l-2.463,-3.372l-3.537,2.342c1.773,0.159 3.59,0.505 5.522,1.038c-0.25,0.363 -0.337,0.812 -0.294,1.326c-5.374,-1.42 -9.739,-1.401 -14.794,-0.001c0.025,-0.475 -0.027,-0.932 -0.237,-1.331c1.9,-0.545 3.705,-0.893 5.493,-1.045l-3.557,-2.351l-2.45,3.367c0.227,0.373 0.354,0.808 0.354,1.263c0,1.338 -1.087,2.425 -2.425,2.425c-1.339,0 -2.426,-1.087 -2.426,-2.425c0,-0.766 0.356,-1.453 0.915,-1.898l-1.342,-5.338c-1.122,-0.213 -1.971,-1.199 -1.971,-2.383c0,-1.338 1.087,-2.425 2.426,-2.425c1.339,0 2.426,1.087 2.426,2.425c0,0.113 -0.008,0.225 -0.024,0.335l4.168,2.754l4.133,-5.693Zm11.165,10.015l0.004,-0.002l0.501,1.105c-0.434,0.196 -0.713,0.628 -0.713,1.105c0,0.669 0.544,1.212 1.213,1.212c0.669,0 1.213,-0.543 1.213,-1.212c0,-0.67 -0.543,-1.213 -1.213,-1.213l0,-1.211l0,0l0,-0.001l0,-0.001l0,0l1.275,-5.006l-0.003,-0.001l0.527,-1.093c0.164,0.079 0.344,0.12 0.526,0.12c0.669,0 1.213,-0.543 1.213,-1.213c0,-0.669 -0.544,-1.213 -1.213,-1.213c-0.669,0 -1.213,0.544 -1.213,1.213c0,0.304 0.114,0.597 0.32,0.821l-0.889,0.817l0,0l-0.002,0.002l-0.002,0.001l-0.001,0l-3.879,2.569l2.336,3.201Zm-16.117,-3.194l-3.94,-2.604l0.001,-0.001l-0.906,-0.806c0.198,-0.222 0.307,-0.508 0.307,-0.806c0,-0.669 -0.544,-1.213 -1.213,-1.213c-0.669,0 -1.213,0.544 -1.213,1.213c0,0.67 0.544,1.213 1.213,1.213c0.174,0 0.346,-0.037 0.505,-0.11l0.503,1.099l0.001,0l1.255,4.995l0,-0.001l0,0.004l0.001,0.001c0,0 0,0 0,0.001l0.066,1.205c-0.643,0.036 -1.146,0.568 -1.146,1.212c0,0.669 0.543,1.212 1.213,1.212c0.669,0 1.212,-0.543 1.212,-1.212c0,-0.471 -0.272,-0.9 -0.699,-1.099l0.514,-1.099l0.001,0l2.325,-3.204Zm11.728,-0.361l-4.114,-5.633l0.001,-0.001l-0.37,-1.152c0.501,-0.161 0.841,-0.628 0.841,-1.155c0,-0.669 -0.543,-1.212 -1.213,-1.212c-0.669,0 -1.213,0.543 -1.213,1.212c0,0.521 0.332,0.983 0.824,1.149l-0.388,1.147l0.002,0.001l-4.11,5.649l4.865,3.213l4.875,-3.218Z" style="fill:#fefffe;"/></g></svg>