<?xml version="1.0" encoding="UTF-8" standalone="no"?>
<!DOCTYPE svg PUBLIC "-//W3C//DTD SVG 1.1//EN" "http://www.w3.org/Graphics/SVG/1.1/DTD/svg11.dtd">
<svg width="100%" height="100%" viewBox="0 0 200 200" version="1.1" xmlns="http://www.w3.org/2000/svg" xmlns:xlink="http://www.w3.org/1999/xlink" xml:space="preserve" style="fill-rule:evenodd;clip-rule:evenodd;stroke-linejoin:round;stroke-miterlimit:1.41421;">
    <g transform="matrix(2,0,0,2,0.0494714,-0.0494714)">
        <g transform="matrix(1.00237,0,0,1.00237,0.0423618,-0.318345)">
            <path d="M50.084,0.234L50.245,0.235L50.406,0.236L50.567,0.238L50.728,0.241L50.889,0.243L51.049,0.247L51.21,0.25L51.37,0.255L51.53,0.26L51.69,0.265L51.85,0.271L52.01,0.277L52.169,0.284L52.329,0.291L52.488,0.299L52.648,0.307L52.807,0.316L52.966,0.326L53.125,0.335L53.283,0.346L53.442,0.357L53.6,0.368L53.759,0.38L53.917,0.392L54.075,0.405L54.233,0.418L54.391,0.432L54.548,0.446L54.706,0.461L54.863,0.476L55.02,0.492L55.177,0.508L55.334,0.525L55.491,0.542L55.648,0.56L55.804,0.578L55.96,0.597L56.117,0.616L56.273,0.635L56.428,0.655L56.584,0.676L56.74,0.697L56.895,0.718L57.05,0.74L57.206,0.763L57.361,0.786L57.515,0.809L57.67,0.833L57.825,0.858L57.979,0.883L58.133,0.908L58.287,0.934L58.441,0.96L58.595,0.987L58.748,1.014L58.902,1.042L59.055,1.07L59.208,1.098L59.361,1.127L59.514,1.157L59.666,1.187L59.819,1.217L59.971,1.248L60.123,1.28L60.275,1.312L60.426,1.344L60.578,1.377L60.729,1.41L60.881,1.444L61.032,1.478L61.183,1.512L61.333,1.548L61.484,1.583L61.634,1.619L61.784,1.655L61.934,1.692L62.084,1.73L62.234,1.767L62.383,1.806L62.532,1.844L62.682,1.884L62.831,1.923L62.979,1.963L63.128,2.004L63.276,2.045L63.424,2.086L63.572,2.128L63.72,2.17L63.868,2.213L64.015,2.256L64.162,2.3L64.31,2.344L64.456,2.388L64.603,2.433L64.75,2.478L64.896,2.524L65.042,2.57L65.188,2.617L65.334,2.664L65.479,2.712L65.624,2.76L65.77,2.808L65.915,2.857L66.059,2.906L66.204,2.956L66.348,3.006L66.492,3.057L66.636,3.108L66.78,3.159L66.923,3.211L67.067,3.263L67.21,3.316L67.353,3.369L67.496,3.422L67.638,3.476L67.78,3.531L67.922,3.586L68.064,3.641L68.206,3.696L68.347,3.753L68.489,3.809L68.63,3.866L68.77,3.923L68.911,3.981L69.051,4.039L69.192,4.098L69.332,4.157L69.471,4.216L69.611,4.276L69.75,4.336L69.889,4.397L70.028,4.458L70.167,4.519L70.305,4.581L70.443,4.643L70.581,4.706L70.719,4.769L70.857,4.833L70.994,4.897L71.131,4.961L71.268,5.026L71.405,5.091L71.541,5.156L71.677,5.222L71.813,5.288L71.949,5.355L72.084,5.422L72.219,5.49L72.354,5.558L72.489,5.626L72.624,5.695L72.758,5.764L72.892,5.833L73.026,5.903L73.16,5.973L73.293,6.044L73.426,6.115L73.559,6.187L73.692,6.258L73.824,6.331L73.956,6.403L74.088,6.476L74.22,6.55L74.351,6.623L74.482,6.698L74.613,6.772L74.744,6.847L74.874,6.922L75.005,6.998L75.135,7.074L75.264,7.15L75.394,7.227L75.523,7.305L75.652,7.382L75.78,7.46L75.909,7.538L76.037,7.617L76.165,7.696L76.293,7.776L76.42,7.855L76.547,7.936L76.674,8.016L76.801,8.097L76.927,8.179L77.053,8.26L77.179,8.342L77.305,8.425L77.43,8.508L77.555,8.591L77.68,8.674L77.804,8.758L77.929,8.842L78.053,8.927L78.176,9.012L78.3,9.097L78.423,9.183L78.546,9.269L78.669,9.355L78.791,9.442L78.913,9.529L79.035,9.617L79.157,9.705L79.278,9.793L79.399,9.882L79.52,9.97L79.64,10.06L79.76,10.149L79.88,10.239L80,10.33L80.119,10.42L80.238,10.511L80.357,10.603L80.476,10.694L80.594,10.787L80.712,10.879L80.829,10.972L80.947,11.065L81.064,11.158L81.181,11.252L81.297,11.346L81.413,11.441L81.529,11.536L81.645,11.631L81.76,11.726L81.875,11.822L81.99,11.918L82.105,12.015L82.219,12.112L82.333,12.209L82.446,12.306L82.56,12.404L82.673,12.502L82.785,12.601L82.898,12.7L83.01,12.799L83.122,12.899L83.233,12.998L83.344,13.099L83.455,13.199L83.566,13.3L83.676,13.401L83.786,13.503L83.896,13.604L84.005,13.706L84.114,13.809L84.223,13.912L84.332,14.015L84.44,14.118L84.548,14.222L84.655,14.326L84.762,14.43L84.869,14.535L84.976,14.64L85.082,14.746L85.188,14.851L85.294,14.957L85.399,15.063L85.504,15.17L85.609,15.277L85.713,15.384L85.817,15.492L85.921,15.6L86.024,15.708L86.127,15.816L86.23,15.925L86.333,16.034L86.435,16.143L86.537,16.253L86.638,16.363L86.739,16.473L86.84,16.584L86.941,16.695L87.041,16.806L87.141,16.918L87.24,17.029L87.339,17.141L87.438,17.254L87.537,17.367L87.635,17.48L87.733,17.593L87.83,17.706L87.928,17.82L88.024,17.935L88.121,18.049L88.217,18.164L88.313,18.279L88.408,18.394L88.504,18.51L88.598,18.626L88.693,18.742L88.787,18.859L88.881,18.975L88.974,19.092L89.067,19.21L89.16,19.327L89.253,19.445L89.345,19.564L89.436,19.682L89.528,19.801L89.619,19.92L89.71,20.039L89.8,20.159L89.89,20.279L89.979,20.399L90.069,20.52L90.158,20.64L90.246,20.761L90.334,20.883L90.422,21.004L90.51,21.126L90.597,21.248L90.684,21.37L90.77,21.493L90.856,21.616L90.942,21.739L91.027,21.863L91.112,21.986L91.197,22.11L91.281,22.235L91.365,22.359L91.449,22.484L91.532,22.609L91.614,22.734L91.697,22.86L91.779,22.986L91.861,23.112L91.942,23.238L92.023,23.365L92.104,23.492L92.184,23.619L92.264,23.747L92.343,23.874L92.422,24.002L92.501,24.13L92.579,24.259L92.657,24.387L92.735,24.516L92.812,24.646L92.889,24.775L92.965,24.905L93.041,25.035L93.117,25.165L93.192,25.295L93.267,25.426L93.342,25.557L93.416,25.688L93.49,25.819L93.563,25.951L93.636,26.083L93.709,26.215L93.781,26.348L93.853,26.48L93.924,26.613L93.995,26.746L94.066,26.88L94.136,27.013L94.206,27.147L94.275,27.281L94.345,27.415L94.413,27.55L94.482,27.685L94.549,27.82L94.617,27.955L94.684,28.09L94.751,28.226L94.817,28.362L94.883,28.498L94.948,28.635L95.014,28.771L95.078,28.908L95.143,29.045L95.206,29.183L95.27,29.32L95.333,29.458L95.396,29.596L95.458,29.734L95.52,29.872L95.581,30.011L95.642,30.15L95.703,30.289L95.763,30.428L95.823,30.568L95.882,30.708L95.941,30.848L96,30.988L96.058,31.128L96.116,31.269L96.173,31.41L96.23,31.551L96.287,31.692L96.343,31.833L96.398,31.975L96.454,32.117L96.508,32.259L96.563,32.401L96.617,32.544L96.67,32.686L96.723,32.829L96.776,32.972L96.828,33.116L96.88,33.259L96.932,33.403L96.983,33.547L97.033,33.691L97.083,33.835L97.133,33.98L97.182,34.125L97.231,34.27L97.28,34.415L97.328,34.56L97.375,34.706L97.422,34.851L97.469,34.997L97.515,35.143L97.561,35.29L97.606,35.436L97.651,35.583L97.696,35.73L97.74,35.877L97.783,36.024L97.826,36.171L97.869,36.319L97.911,36.467L97.953,36.615L97.995,36.763L98.035,36.911L98.076,37.06L98.116,37.209L98.156,37.358L98.195,37.507L98.233,37.656L98.272,37.805L98.309,37.955L98.347,38.105L98.384,38.255L98.42,38.405L98.456,38.555L98.492,38.706L98.527,38.857L98.561,39.008L98.596,39.159L98.629,39.31L98.662,39.461L98.695,39.613L98.728,39.764L98.759,39.916L98.791,40.068L98.822,40.221L98.852,40.373L98.882,40.526L98.912,40.678L98.941,40.831L98.969,40.984L98.998,41.138L99.025,41.291L99.053,41.445L99.079,41.598L99.106,41.752L99.131,41.906L99.157,42.06L99.182,42.215L99.206,42.369L99.23,42.524L99.253,42.679L99.276,42.834L99.299,42.989L99.321,43.144L99.342,43.299L99.363,43.455L99.384,43.611L99.404,43.767L99.424,43.923L99.443,44.079L99.461,44.235L99.479,44.392L99.497,44.548L99.514,44.705L99.531,44.862L99.547,45.019L99.563,45.176L99.578,45.334L99.593,45.491L99.607,45.649L99.621,45.806L99.634,45.964L99.647,46.122L99.659,46.281L99.671,46.439L99.683,46.597L99.693,46.756L99.704,46.915L99.714,47.073L99.723,47.232L99.732,47.392L99.74,47.551L99.748,47.71L99.755,47.87L99.762,48.029L99.768,48.189L99.774,48.349L99.78,48.509L99.784,48.669L99.789,48.829L99.793,48.99L99.796,49.15L99.799,49.311L99.801,49.472L99.803,49.633L99.804,49.794L99.805,49.955L99.805,50.116L99.805,50.277L99.804,50.438L99.803,50.6L99.801,50.76L99.799,50.921L99.796,51.082L99.793,51.242L99.789,51.403L99.784,51.563L99.78,51.723L99.774,51.883L99.768,52.043L99.762,52.203L99.755,52.363L99.748,52.522L99.74,52.681L99.732,52.841L99.723,53L99.714,53.159L99.704,53.318L99.693,53.476L99.683,53.635L99.671,53.793L99.659,53.952L99.647,54.11L99.634,54.268L99.621,54.426L99.607,54.584L99.593,54.741L99.578,54.899L99.563,55.056L99.547,55.213L99.531,55.37L99.514,55.527L99.497,55.684L99.479,55.841L99.461,55.997L99.443,56.153L99.424,56.31L99.404,56.466L99.384,56.621L99.363,56.777L99.342,56.933L99.321,57.088L99.299,57.243L99.276,57.399L99.253,57.554L99.23,57.708L99.206,57.863L99.182,58.018L99.157,58.172L99.131,58.326L99.106,58.48L99.079,58.634L99.053,58.788L99.025,58.941L98.998,59.095L98.969,59.248L98.941,59.401L98.912,59.554L98.882,59.707L98.852,59.859L98.822,60.012L98.791,60.164L98.759,60.316L98.728,60.468L98.695,60.619L98.662,60.771L98.629,60.922L98.596,61.074L98.561,61.225L98.527,61.376L98.492,61.526L98.456,61.677L98.42,61.827L98.384,61.977L98.347,62.127L98.309,62.277L98.272,62.427L98.233,62.576L98.195,62.726L98.156,62.875L98.116,63.024L98.076,63.172L98.035,63.321L97.995,63.469L97.953,63.617L97.911,63.765L97.869,63.913L97.826,64.061L97.783,64.208L97.74,64.356L97.696,64.503L97.651,64.649L97.606,64.796L97.561,64.943L97.515,65.089L97.469,65.235L97.422,65.381L97.375,65.527L97.328,65.672L97.28,65.818L97.231,65.963L97.182,66.108L97.133,66.252L97.083,66.397L97.033,66.541L96.983,66.685L96.932,66.829L96.88,66.973L96.828,67.116L96.776,67.26L96.723,67.403L96.67,67.546L96.617,67.689L96.563,67.831L96.508,67.973L96.454,68.115L96.398,68.257L96.343,68.399L96.287,68.54L96.23,68.682L96.173,68.823L96.116,68.964L96.058,69.104L96,69.244L95.941,69.385L95.882,69.525L95.823,69.664L95.763,69.804L95.703,69.943L95.642,70.082L95.581,70.221L95.52,70.36L95.458,70.498L95.396,70.636L95.333,70.774L95.27,70.912L95.206,71.05L95.143,71.187L95.078,71.324L95.014,71.461L94.948,71.598L94.883,71.734L94.817,71.87L94.751,72.006L94.684,72.142L94.617,72.277L94.549,72.412L94.482,72.547L94.413,72.682L94.345,72.817L94.275,72.951L94.206,73.085L94.136,73.219L94.066,73.353L93.995,73.486L93.924,73.619L93.853,73.752L93.781,73.885L93.709,74.017L93.636,74.149L93.563,74.281L93.49,74.413L93.416,74.544L93.342,74.675L93.267,74.806L93.192,74.937L93.117,75.067L93.041,75.198L92.965,75.328L92.889,75.457L92.812,75.587L92.735,75.716L92.657,75.845L92.579,75.974L92.501,76.102L92.422,76.23L92.343,76.358L92.264,76.486L92.184,76.613L92.104,76.74L92.023,76.867L91.942,76.994L91.861,77.12L91.779,77.246L91.697,77.372L91.614,77.498L91.532,77.623L91.449,77.748L91.365,77.873L91.281,77.997L91.197,78.122L91.112,78.246L91.027,78.369L90.942,78.493L90.856,78.616L90.77,78.739L90.684,78.862L90.597,78.984L90.51,79.106L90.422,79.228L90.334,79.35L90.246,79.471L90.158,79.592L90.069,79.713L89.979,79.833L89.89,79.953L89.8,80.073L89.71,80.193L89.619,80.312L89.528,80.431L89.436,80.55L89.345,80.669L89.253,80.787L89.16,80.905L89.067,81.022L88.974,81.14L88.881,81.257L88.787,81.374L88.693,81.49L88.598,81.606L88.504,81.722L88.408,81.838L88.313,81.953L88.217,82.068L88.121,82.183L88.024,82.298L87.928,82.412L87.83,82.526L87.733,82.639L87.635,82.753L87.537,82.866L87.438,82.978L87.339,83.091L87.24,83.203L87.141,83.315L87.041,83.426L86.941,83.537L86.84,83.648L86.739,83.759L86.638,83.869L86.537,83.979L86.435,84.089L86.333,84.198L86.23,84.307L86.127,84.416L86.024,84.525L85.921,84.633L85.817,84.741L85.713,84.848L85.609,84.955L85.504,85.062L85.399,85.169L85.294,85.275L85.188,85.381L85.082,85.487L84.976,85.592L84.869,85.697L84.762,85.802L84.655,85.906L84.548,86.01L84.44,86.114L84.332,86.217L84.223,86.32L84.114,86.423L84.005,86.526L83.896,86.628L83.786,86.73L83.676,86.831L83.566,86.932L83.455,87.033L83.344,87.134L83.233,87.234L83.122,87.334L83.01,87.433L82.898,87.532L82.785,87.631L82.673,87.73L82.56,87.828L82.446,87.926L82.333,88.023L82.219,88.121L82.105,88.217L81.99,88.314L81.875,88.41L81.76,88.506L81.645,88.601L81.529,88.697L81.413,88.791L81.297,88.886L81.181,88.98L81.064,89.074L80.947,89.167L80.829,89.26L80.712,89.353L80.594,89.446L80.476,89.538L80.357,89.629L80.238,89.721L80.119,89.812L80,89.903L79.88,89.993L79.76,90.083L79.64,90.172L79.52,90.262L79.399,90.351L79.278,90.439L79.157,90.527L79.035,90.615L78.913,90.703L78.791,90.79L78.669,90.877L78.546,90.963L78.423,91.049L78.3,91.135L78.176,91.22L78.053,91.305L77.929,91.39L77.804,91.474L77.68,91.558L77.555,91.642L77.43,91.725L77.305,91.808L77.179,91.89L77.053,91.972L76.927,92.054L76.801,92.135L76.674,92.216L76.547,92.297L76.42,92.377L76.293,92.457L76.165,92.536L76.037,92.615L75.909,92.694L75.78,92.772L75.652,92.85L75.523,92.928L75.394,93.005L75.264,93.082L75.135,93.158L75.005,93.234L74.874,93.31L74.744,93.385L74.613,93.46L74.482,93.535L74.351,93.609L74.22,93.683L74.088,93.756L73.956,93.829L73.824,93.902L73.692,93.974L73.559,94.046L73.426,94.117L73.293,94.188L73.16,94.259L73.026,94.329L72.892,94.399L72.758,94.468L72.624,94.538L72.489,94.606L72.354,94.675L72.219,94.742L72.084,94.81L71.949,94.877L71.813,94.944L71.677,95.01L71.541,95.076L71.405,95.142L71.268,95.207L71.131,95.271L70.994,95.336L70.857,95.4L70.719,95.463L70.581,95.526L70.443,95.589L70.305,95.651L70.167,95.713L70.028,95.774L69.889,95.835L69.75,95.896L69.611,95.956L69.471,96.016L69.332,96.075L69.192,96.134L69.051,96.193L68.911,96.251L68.77,96.309L68.63,96.366L68.489,96.423L68.347,96.48L68.206,96.536L68.064,96.591L67.922,96.647L67.78,96.701L67.638,96.756L67.496,96.81L67.353,96.863L67.21,96.916L67.067,96.969L66.923,97.021L66.78,97.073L66.636,97.125L66.492,97.176L66.348,97.226L66.204,97.276L66.059,97.326L65.915,97.375L65.77,97.424L65.624,97.473L65.479,97.521L65.334,97.568L65.188,97.615L65.042,97.662L64.896,97.708L64.75,97.754L64.603,97.799L64.456,97.844L64.31,97.889L64.162,97.933L64.015,97.976L63.868,98.019L63.72,98.062L63.572,98.104L63.424,98.146L63.276,98.188L63.128,98.229L62.979,98.269L62.831,98.309L62.682,98.349L62.532,98.388L62.383,98.426L62.234,98.465L62.084,98.503L61.934,98.54L61.784,98.577L61.634,98.613L61.484,98.649L61.333,98.685L61.183,98.72L61.032,98.754L60.881,98.789L60.729,98.822L60.578,98.855L60.426,98.888L60.275,98.921L60.123,98.952L59.971,98.984L59.819,99.015L59.666,99.045L59.514,99.075L59.361,99.105L59.208,99.134L59.055,99.163L58.902,99.191L58.748,99.218L58.595,99.246L58.441,99.272L58.287,99.299L58.133,99.324L57.979,99.35L57.825,99.375L57.67,99.399L57.515,99.423L57.361,99.446L57.206,99.469L57.05,99.492L56.895,99.514L56.74,99.535L56.584,99.556L56.428,99.577L56.273,99.597L56.117,99.617L55.96,99.636L55.804,99.654L55.648,99.673L55.491,99.69L55.334,99.707L55.177,99.724L55.02,99.74L54.863,99.756L54.706,99.771L54.548,99.786L54.391,99.8L54.233,99.814L54.075,99.827L53.917,99.84L53.759,99.852L53.6,99.864L53.442,99.876L53.283,99.886L53.125,99.897L52.966,99.907L52.807,99.916L52.648,99.925L52.488,99.933L52.329,99.941L52.169,99.948L52.01,99.955L51.85,99.961L51.69,99.967L51.53,99.973L51.37,99.977L51.21,99.982L51.049,99.986L50.889,99.989L50.728,99.992L50.567,99.994L50.406,99.996L50.245,99.997L50.084,99.998L49.923,99.998L49.762,99.998L49.601,99.997L49.44,99.996L49.279,99.994L49.118,99.992L48.957,99.989L48.797,99.986L48.636,99.982L48.476,99.977L48.316,99.973L48.156,99.967L47.996,99.961L47.836,99.955L47.677,99.948L47.517,99.941L47.358,99.933L47.199,99.925L47.039,99.916L46.88,99.907L46.722,99.897L46.563,99.886L46.404,99.876L46.246,99.864L46.088,99.852L45.929,99.84L45.771,99.827L45.613,99.814L45.456,99.8L45.298,99.786L45.141,99.771L44.983,99.756L44.826,99.74L44.669,99.724L44.512,99.707L44.355,99.69L44.199,99.673L44.042,99.654L43.886,99.636L43.73,99.617L43.574,99.597L43.418,99.577L43.262,99.556L43.106,99.535L42.951,99.514L42.796,99.492L42.641,99.469L42.486,99.446L42.331,99.423L42.176,99.399L42.022,99.375L41.867,99.35L41.713,99.324L41.559,99.299L41.405,99.272L41.252,99.246L41.098,99.218L40.945,99.191L40.791,99.163L40.638,99.134L40.485,99.105L40.333,99.075L40.18,99.045L40.028,99.015L39.875,98.984L39.723,98.952L39.571,98.921L39.42,98.888L39.268,98.855L39.117,98.822L38.966,98.789L38.815,98.754L38.664,98.72L38.513,98.685L38.362,98.649L38.212,98.613L38.062,98.577L37.912,98.54L37.762,98.503L37.612,98.465L37.463,98.426L37.314,98.388L37.165,98.349L37.016,98.309L36.867,98.269L36.718,98.229L36.57,98.188L36.422,98.146L36.274,98.104L36.126,98.062L35.978,98.019L35.831,97.976L35.684,97.933L35.537,97.889L35.39,97.844L35.243,97.799L35.097,97.754L34.95,97.708L34.804,97.662L34.658,97.615L34.513,97.568L34.367,97.521L34.222,97.473L34.077,97.424L33.932,97.375L33.787,97.326L33.642,97.276L33.498,97.226L33.354,97.176L33.21,97.125L33.066,97.073L32.923,97.021L32.779,96.969L32.636,96.916L32.493,96.863L32.351,96.81L32.208,96.756L32.066,96.701L31.924,96.647L31.782,96.591L31.64,96.536L31.499,96.48L31.358,96.423L31.217,96.366L31.076,96.309L30.935,96.251L30.795,96.193L30.655,96.134L30.515,96.075L30.375,96.016L30.235,95.956L30.096,95.896L29.957,95.835L29.818,95.774L29.679,95.713L29.541,95.651L29.403,95.589L29.265,95.526L29.127,95.463L28.99,95.4L28.852,95.336L28.715,95.271L28.578,95.207L28.442,95.142L28.305,95.076L28.169,95.01L28.033,94.944L27.897,94.877L27.762,94.81L27.627,94.742L27.492,94.675L27.357,94.606L27.222,94.538L27.088,94.468L26.954,94.399L26.82,94.329L26.687,94.259L26.553,94.188L26.42,94.117L26.287,94.046L26.155,93.974L26.022,93.902L25.89,93.829L25.758,93.756L25.626,93.683L25.495,93.609L25.364,93.535L25.233,93.46L25.102,93.385L24.972,93.31L24.842,93.234L24.712,93.158L24.582,93.082L24.452,93.005L24.323,92.928L24.194,92.85L24.066,92.772L23.937,92.694L23.809,92.615L23.681,92.536L23.553,92.457L23.426,92.377L23.299,92.297L23.172,92.216L23.045,92.135L22.919,92.054L22.793,91.972L22.667,91.89L22.541,91.808L22.416,91.725L22.291,91.642L22.166,91.558L22.042,91.474L21.917,91.39L21.793,91.305L21.67,91.22L21.546,91.135L21.423,91.049L21.3,90.963L21.177,90.877L21.055,90.79L20.933,90.703L20.811,90.615L20.69,90.527L20.568,90.439L20.447,90.351L20.327,90.262L20.206,90.172L20.086,90.083L19.966,89.993L19.846,89.903L19.727,89.812L19.608,89.721L19.489,89.629L19.371,89.538L19.252,89.446L19.134,89.353L19.017,89.26L18.899,89.167L18.782,89.074L18.666,88.98L18.549,88.886L18.433,88.791L18.317,88.697L18.201,88.601L18.086,88.506L17.971,88.41L17.856,88.314L17.742,88.217L17.627,88.121L17.513,88.023L17.4,87.926L17.287,87.828L17.174,87.73L17.061,87.631L16.948,87.532L16.836,87.433L16.725,87.334L16.613,87.234L16.502,87.134L16.391,87.033L16.28,86.932L16.17,86.831L16.06,86.73L15.95,86.628L15.841,86.526L15.732,86.423L15.623,86.32L15.515,86.217L15.406,86.114L15.299,86.01L15.191,85.906L15.084,85.802L14.977,85.697L14.87,85.592L14.764,85.487L14.658,85.381L14.552,85.275L14.447,85.169L14.342,85.062L14.237,84.955L14.133,84.848L14.029,84.741L13.925,84.633L13.822,84.525L13.719,84.416L13.616,84.307L13.513,84.198L13.411,84.089L13.31,83.979L13.208,83.869L13.107,83.759L13.006,83.648L12.906,83.537L12.805,83.426L12.705,83.315L12.606,83.203L12.507,83.091L12.408,82.978L12.309,82.866L12.211,82.753L12.113,82.639L12.016,82.526L11.919,82.412L11.822,82.298L11.725,82.183L11.629,82.068L11.533,81.953L11.438,81.838L11.343,81.722L11.248,81.606L11.153,81.49L11.059,81.374L10.965,81.257L10.872,81.14L10.779,81.022L10.686,80.905L10.594,80.787L10.501,80.669L10.41,80.55L10.318,80.431L10.227,80.312L10.137,80.193L10.046,80.073L9.956,79.953L9.867,79.833L9.777,79.713L9.689,79.592L9.6,79.471L9.512,79.35L9.424,79.228L9.336,79.106L9.249,78.984L9.162,78.862L9.076,78.739L8.99,78.616L8.904,78.493L8.819,78.369L8.734,78.246L8.649,78.122L8.565,77.997L8.481,77.873L8.398,77.748L8.314,77.623L8.232,77.498L8.149,77.372L8.067,77.246L7.986,77.12L7.904,76.994L7.823,76.867L7.743,76.74L7.662,76.613L7.583,76.486L7.503,76.358L7.424,76.23L7.345,76.102L7.267,75.974L7.189,75.845L7.111,75.716L7.034,75.587L6.957,75.457L6.881,75.328L6.805,75.198L6.729,75.067L6.654,74.937L6.579,74.806L6.504,74.675L6.43,74.544L6.357,74.413L6.283,74.281L6.21,74.149L6.138,74.017L6.065,73.885L5.994,73.752L5.922,73.619L5.851,73.486L5.78,73.353L5.71,73.219L5.64,73.085L5.571,72.951L5.502,72.817L5.433,72.682L5.365,72.547L5.297,72.412L5.229,72.277L5.162,72.142L5.095,72.006L5.029,71.87L4.963,71.734L4.898,71.598L4.833,71.461L4.768,71.324L4.704,71.187L4.64,71.05L4.576,70.912L4.513,70.774L4.45,70.636L4.388,70.498L4.326,70.36L4.265,70.221L4.204,70.082L4.143,69.943L4.083,69.804L4.023,69.664L3.964,69.525L3.905,69.385L3.846,69.244L3.788,69.104L3.73,68.964L3.673,68.823L3.616,68.682L3.56,68.54L3.503,68.399L3.448,68.257L3.393,68.115L3.338,67.973L3.283,67.831L3.229,67.689L3.176,67.546L3.123,67.403L3.07,67.26L3.018,67.116L2.966,66.973L2.915,66.829L2.864,66.685L2.813,66.541L2.763,66.397L2.713,66.252L2.664,66.108L2.615,65.963L2.567,65.818L2.519,65.672L2.471,65.527L2.424,65.381L2.377,65.235L2.331,65.089L2.285,64.943L2.24,64.796L2.195,64.649L2.151,64.503L2.107,64.356L2.063,64.208L2.02,64.061L1.977,63.913L1.935,63.765L1.893,63.617L1.852,63.469L1.811,63.321L1.77,63.172L1.73,63.024L1.691,62.875L1.651,62.726L1.613,62.576L1.574,62.427L1.537,62.277L1.499,62.127L1.462,61.977L1.426,61.827L1.39,61.677L1.354,61.526L1.319,61.376L1.285,61.225L1.251,61.074L1.217,60.922L1.184,60.771L1.151,60.619L1.119,60.468L1.087,60.316L1.055,60.164L1.024,60.012L0.994,59.859L0.964,59.707L0.934,59.554L0.905,59.401L0.877,59.248L0.849,59.095L0.821,58.941L0.794,58.788L0.767,58.634L0.741,58.48L0.715,58.326L0.689,58.172L0.665,58.018L0.64,57.863L0.616,57.708L0.593,57.554L0.57,57.399L0.547,57.243L0.525,57.088L0.504,56.933L0.483,56.777L0.462,56.621L0.442,56.466L0.423,56.31L0.403,56.153L0.385,55.997L0.367,55.841L0.349,55.684L0.332,55.527L0.315,55.37L0.299,55.213L0.283,55.056L0.268,54.899L0.253,54.741L0.239,54.584L0.225,54.426L0.212,54.268L0.199,54.11L0.187,53.952L0.175,53.793L0.164,53.635L0.153,53.476L0.142,53.318L0.133,53.159L0.123,53L0.114,52.841L0.106,52.681L0.098,52.522L0.091,52.363L0.084,52.203L0.078,52.043L0.072,51.883L0.067,51.723L0.062,51.563L0.057,51.403L0.054,51.242L0.05,51.082L0.048,50.921L0.045,50.76L0.043,50.6L0.042,50.438L0.041,50.277L0.041,50.116L0.041,49.955L0.042,49.794L0.043,49.633L0.045,49.472L0.048,49.311L0.05,49.15L0.054,48.99L0.057,48.829L0.062,48.669L0.067,48.509L0.072,48.349L0.078,48.189L0.084,48.029L0.091,47.87L0.098,47.71L0.106,47.551L0.114,47.392L0.123,47.232L0.133,47.073L0.142,46.915L0.153,46.756L0.164,46.597L0.175,46.439L0.187,46.281L0.199,46.122L0.212,45.964L0.225,45.806L0.239,45.649L0.253,45.491L0.268,45.334L0.283,45.176L0.299,45.019L0.315,44.862L0.332,44.705L0.349,44.548L0.367,44.392L0.385,44.235L0.403,44.079L0.423,43.923L0.442,43.767L0.462,43.611L0.483,43.455L0.504,43.299L0.525,43.144L0.547,42.989L0.57,42.834L0.593,42.679L0.616,42.524L0.64,42.369L0.665,42.215L0.689,42.06L0.715,41.906L0.741,41.752L0.767,41.598L0.794,41.445L0.821,41.291L0.849,41.138L0.877,40.984L0.905,40.831L0.934,40.678L0.964,40.526L0.994,40.373L1.024,40.221L1.055,40.068L1.087,39.916L1.119,39.764L1.151,39.613L1.184,39.461L1.217,39.31L1.251,39.159L1.285,39.008L1.319,38.857L1.354,38.706L1.39,38.555L1.426,38.405L1.462,38.255L1.499,38.105L1.537,37.955L1.574,37.805L1.613,37.656L1.651,37.507L1.691,37.358L1.73,37.209L1.77,37.06L1.811,36.911L1.852,36.763L1.893,36.615L1.935,36.467L1.977,36.319L2.02,36.171L2.063,36.024L2.107,35.877L2.151,35.73L2.195,35.583L2.24,35.436L2.285,35.29L2.331,35.143L2.377,34.997L2.424,34.851L2.471,34.706L2.519,34.56L2.567,34.415L2.615,34.27L2.664,34.125L2.713,33.98L2.763,33.835L2.813,33.691L2.864,33.547L2.915,33.403L2.966,33.259L3.018,33.116L3.07,32.972L3.123,32.829L3.176,32.686L3.229,32.544L3.283,32.401L3.338,32.259L3.393,32.117L3.448,31.975L3.503,31.833L3.56,31.692L3.616,31.551L3.673,31.41L3.73,31.269L3.788,31.128L3.846,30.988L3.905,30.848L3.964,30.708L4.023,30.568L4.083,30.428L4.143,30.289L4.204,30.15L4.265,30.011L4.326,29.872L4.388,29.734L4.45,29.596L4.513,29.458L4.576,29.32L4.64,29.183L4.704,29.045L4.768,28.908L4.833,28.771L4.898,28.635L4.963,28.498L5.029,28.362L5.095,28.226L5.162,28.09L5.229,27.955L5.297,27.82L5.365,27.685L5.433,27.55L5.502,27.415L5.571,27.281L5.64,27.147L5.71,27.013L5.78,26.88L5.851,26.746L5.922,26.613L5.994,26.48L6.065,26.348L6.138,26.215L6.21,26.083L6.283,25.951L6.357,25.819L6.43,25.688L6.504,25.557L6.579,25.426L6.654,25.295L6.729,25.165L6.805,25.035L6.881,24.905L6.957,24.775L7.034,24.646L7.111,24.516L7.189,24.387L7.267,24.259L7.345,24.13L7.424,24.002L7.503,23.874L7.583,23.747L7.662,23.619L7.743,23.492L7.823,23.365L7.904,23.238L7.986,23.112L8.067,22.986L8.149,22.86L8.232,22.734L8.314,22.609L8.398,22.484L8.481,22.359L8.565,22.235L8.649,22.11L8.734,21.986L8.819,21.863L8.904,21.739L8.99,21.616L9.076,21.493L9.162,21.37L9.249,21.248L9.336,21.126L9.424,21.004L9.512,20.883L9.6,20.761L9.689,20.64L9.777,20.52L9.867,20.399L9.956,20.279L10.046,20.159L10.137,20.039L10.227,19.92L10.318,19.801L10.41,19.682L10.501,19.564L10.594,19.445L10.686,19.327L10.779,19.21L10.872,19.092L10.965,18.975L11.059,18.859L11.153,18.742L11.248,18.626L11.343,18.51L11.438,18.394L11.533,18.279L11.629,18.164L11.725,18.049L11.822,17.935L11.919,17.82L12.016,17.706L12.113,17.593L12.211,17.48L12.309,17.367L12.408,17.254L12.507,17.141L12.606,17.029L12.705,16.918L12.805,16.806L12.906,16.695L13.006,16.584L13.107,16.473L13.208,16.363L13.31,16.253L13.411,16.143L13.513,16.034L13.616,15.925L13.719,15.816L13.822,15.708L13.925,15.6L14.029,15.492L14.133,15.384L14.237,15.277L14.342,15.17L14.447,15.063L14.552,14.957L14.658,14.851L14.764,14.746L14.87,14.64L14.977,14.535L15.084,14.43L15.191,14.326L15.299,14.222L15.406,14.118L15.515,14.015L15.623,13.912L15.732,13.809L15.841,13.706L15.95,13.604L16.06,13.503L16.17,13.401L16.28,13.3L16.391,13.199L16.502,13.099L16.613,12.998L16.725,12.899L16.836,12.799L16.948,12.7L17.061,12.601L17.174,12.502L17.287,12.404L17.4,12.306L17.513,12.209L17.627,12.112L17.742,12.015L17.856,11.918L17.971,11.822L18.086,11.726L18.201,11.631L18.317,11.536L18.433,11.441L18.549,11.346L18.666,11.252L18.782,11.158L18.899,11.065L19.017,10.972L19.134,10.879L19.252,10.787L19.371,10.694L19.489,10.603L19.608,10.511L19.727,10.42L19.846,10.33L19.966,10.239L20.086,10.149L20.206,10.06L20.327,9.97L20.447,9.882L20.568,9.793L20.69,9.705L20.811,9.617L20.933,9.529L21.055,9.442L21.177,9.355L21.3,9.269L21.423,9.183L21.546,9.097L21.67,9.012L21.793,8.927L21.917,8.842L22.042,8.758L22.166,8.674L22.291,8.591L22.416,8.508L22.541,8.425L22.667,8.342L22.793,8.26L22.919,8.179L23.045,8.097L23.172,8.016L23.299,7.936L23.426,7.855L23.553,7.776L23.681,7.696L23.809,7.617L23.937,7.538L24.066,7.46L24.194,7.382L24.323,7.305L24.452,7.227L24.582,7.15L24.712,7.074L24.842,6.998L24.972,6.922L25.102,6.847L25.233,6.772L25.364,6.698L25.495,6.623L25.626,6.55L25.758,6.476L25.89,6.403L26.022,6.331L26.155,6.258L26.287,6.187L26.42,6.115L26.553,6.044L26.687,5.973L26.82,5.903L26.954,5.833L27.088,5.764L27.222,5.695L27.357,5.626L27.492,5.558L27.627,5.49L27.762,5.422L27.897,5.355L28.033,5.288L28.169,5.222L28.305,5.156L28.442,5.091L28.578,5.026L28.715,4.961L28.852,4.897L28.99,4.833L29.127,4.769L29.265,4.706L29.403,4.643L29.541,4.581L29.679,4.519L29.818,4.458L29.957,4.397L30.096,4.336L30.235,4.276L30.375,4.216L30.515,4.157L30.655,4.098L30.795,4.039L30.935,3.981L31.076,3.923L31.217,3.866L31.358,3.809L31.499,3.753L31.64,3.696L31.782,3.641L31.924,3.586L32.066,3.531L32.208,3.476L32.351,3.422L32.493,3.369L32.636,3.316L32.779,3.263L32.923,3.211L33.066,3.159L33.21,3.108L33.354,3.057L33.498,3.006L33.642,2.956L33.787,2.906L33.932,2.857L34.077,2.808L34.222,2.76L34.367,2.712L34.513,2.664L34.658,2.617L34.804,2.57L34.95,2.524L35.097,2.478L35.243,2.433L35.39,2.388L35.537,2.344L35.684,2.3L35.831,2.256L35.978,2.213L36.126,2.17L36.274,2.128L36.422,2.086L36.57,2.045L36.718,2.004L36.867,1.963L37.016,1.923L37.165,1.884L37.314,1.844L37.463,1.806L37.612,1.767L37.762,1.73L37.912,1.692L38.062,1.655L38.212,1.619L38.362,1.583L38.513,1.548L38.664,1.512L38.815,1.478L38.966,1.444L39.117,1.41L39.268,1.377L39.42,1.344L39.571,1.312L39.723,1.28L39.875,1.248L40.028,1.217L40.18,1.187L40.333,1.157L40.485,1.127L40.638,1.098L40.791,1.07L40.945,1.042L41.098,1.014L41.252,0.987L41.405,0.96L41.559,0.934L41.713,0.908L41.867,0.883L42.022,0.858L42.176,0.833L42.331,0.809L42.486,0.786L42.641,0.763L42.796,0.74L42.951,0.718L43.106,0.697L43.262,0.676L43.418,0.655L43.574,0.635L43.73,0.616L43.886,0.597L44.042,0.578L44.199,0.56L44.355,0.542L44.512,0.525L44.669,0.508L44.826,0.492L44.983,0.476L45.141,0.461L45.298,0.446L45.456,0.432L45.613,0.418L45.771,0.405L45.929,0.392L46.088,0.38L46.246,0.368L46.404,0.357L46.563,0.346L46.722,0.335L46.88,0.326L47.039,0.316L47.199,0.307L47.358,0.299L47.517,0.291L47.677,0.284L47.836,0.277L47.996,0.271L48.156,0.265L48.316,0.26L48.476,0.255L48.636,0.25L48.797,0.247L48.957,0.243L49.118,0.241L49.279,0.238L49.44,0.236L49.601,0.235L49.762,0.234L49.923,0.234L50.084,0.234ZM49.778,5.223L49.632,5.223L49.487,5.224L49.342,5.226L49.197,5.228L49.052,5.231L48.908,5.234L48.763,5.237L48.618,5.241L48.474,5.245L48.33,5.25L48.186,5.255L48.042,5.261L47.898,5.267L47.754,5.274L47.611,5.281L47.467,5.288L47.324,5.296L47.181,5.305L47.038,5.314L46.895,5.323L46.752,5.333L46.609,5.343L46.466,5.354L46.324,5.365L46.182,5.376L46.04,5.388L45.897,5.401L45.756,5.413L45.614,5.427L45.472,5.44L45.331,5.455L45.189,5.469L45.048,5.484L44.907,5.5L44.766,5.516L44.625,5.532L44.484,5.549L44.344,5.566L44.203,5.584L44.063,5.602L43.923,5.62L43.783,5.639L43.643,5.658L43.503,5.678L43.364,5.698L43.224,5.719L43.085,5.74L42.946,5.762L42.807,5.784L42.668,5.806L42.529,5.829L42.391,5.852L42.252,5.876L42.114,5.9L41.976,5.924L41.838,5.949L41.7,5.974L41.563,6L41.425,6.026L41.288,6.053L41.15,6.08L41.013,6.107L40.876,6.135L40.74,6.163L40.603,6.192L40.467,6.221L40.33,6.251L40.194,6.28L40.058,6.311L39.922,6.341L39.787,6.373L39.651,6.404L39.516,6.436L39.381,6.468L39.246,6.501L39.111,6.534L38.976,6.568L38.841,6.602L38.707,6.636L38.573,6.671L38.439,6.706L38.305,6.742L38.171,6.778L38.038,6.814L37.904,6.851L37.771,6.888L37.638,6.926L37.505,6.964L37.372,7.002L37.24,7.041L37.107,7.08L36.975,7.12L36.843,7.16L36.711,7.2L36.579,7.241L36.448,7.282L36.316,7.324L36.185,7.366L36.054,7.408L35.923,7.451L35.793,7.494L35.662,7.538L35.532,7.581L35.402,7.626L35.272,7.67L35.142,7.716L35.012,7.761L34.883,7.807L34.754,7.853L34.625,7.9L34.496,7.947L34.367,7.994L34.238,8.042L34.11,8.09L33.982,8.139L33.854,8.187L33.726,8.237L33.599,8.286L33.471,8.336L33.344,8.387L33.217,8.438L33.09,8.489L32.964,8.54L32.837,8.592L32.711,8.645L32.585,8.697L32.459,8.75L32.333,8.804L32.208,8.858L32.082,8.912L31.957,8.966L31.832,9.021L31.708,9.077L31.583,9.132L31.459,9.188L31.335,9.245L31.211,9.301L31.087,9.358L30.964,9.416L30.84,9.474L30.717,9.532L30.594,9.59L30.472,9.649L30.349,9.709L30.227,9.768L30.105,9.828L29.983,9.889L29.861,9.949L29.74,10.011L29.618,10.072L29.497,10.134L29.377,10.196L29.256,10.259L29.136,10.321L29.015,10.385L28.895,10.448L28.776,10.512L28.656,10.576L28.537,10.641L28.418,10.706L28.299,10.771L28.18,10.837L28.061,10.903L27.943,10.969L27.825,11.036L27.707,11.103L27.59,11.171L27.472,11.238L27.355,11.307L27.238,11.375L27.121,11.444L27.005,11.513L26.889,11.582L26.773,11.652L26.657,11.722L26.541,11.793L26.426,11.864L26.311,11.935L26.196,12.007L26.081,12.078L25.967,12.151L25.852,12.223L25.738,12.296L25.625,12.369L25.511,12.443L25.398,12.517L25.285,12.591L25.172,12.665L25.059,12.74L24.947,12.815L24.835,12.891L24.723,12.967L24.611,13.043L24.5,13.12L24.389,13.196L24.278,13.274L24.167,13.351L24.057,13.429L23.947,13.507L23.837,13.585L23.727,13.664L23.617,13.743L23.508,13.823L23.399,13.902L23.29,13.983L23.182,14.063L23.074,14.144L22.966,14.225L22.858,14.306L22.751,14.388L22.643,14.47L22.536,14.552L22.43,14.635L22.323,14.717L22.217,14.801L22.111,14.884L22.005,14.968L21.9,15.052L21.795,15.137L21.69,15.222L21.585,15.307L21.481,15.392L21.377,15.478L21.273,15.564L21.169,15.65L21.066,15.737L20.963,15.824L20.86,15.911L20.757,15.998L20.655,16.086L20.553,16.174L20.451,16.263L20.349,16.352L20.248,16.441L20.147,16.53L20.047,16.62L19.946,16.709L19.846,16.8L19.746,16.89L19.646,16.981L19.547,17.072L19.448,17.164L19.349,17.255L19.251,17.347L19.152,17.44L19.055,17.532L18.957,17.625L18.859,17.718L18.762,17.812L18.665,17.905L18.569,17.999L18.473,18.094L18.377,18.188L18.281,18.283L18.185,18.378L18.09,18.474L17.995,18.57L17.901,18.666L17.806,18.762L17.712,18.858L17.619,18.955L17.525,19.052L17.432,19.15L17.339,19.248L17.247,19.346L17.154,19.444L17.062,19.542L16.971,19.641L16.879,19.74L16.788,19.84L16.697,19.939L16.607,20.039L16.516,20.139L16.427,20.24L16.337,20.34L16.248,20.441L16.159,20.543L16.07,20.644L15.981,20.746L15.893,20.848L15.805,20.95L15.718,21.053L15.631,21.156L15.544,21.259L15.457,21.362L15.371,21.466L15.285,21.57L15.199,21.674L15.114,21.778L15.028,21.883L14.944,21.988L14.859,22.093L14.775,22.198L14.691,22.304L14.608,22.41L14.524,22.516L14.442,22.623L14.359,22.729L14.277,22.836L14.195,22.944L14.113,23.051L14.032,23.159L13.951,23.267L13.87,23.375L13.79,23.484L13.709,23.592L13.63,23.701L13.55,23.81L13.471,23.92L13.392,24.03L13.314,24.14L13.236,24.25L13.158,24.36L13.081,24.471L13.003,24.582L12.927,24.693L12.85,24.804L12.774,24.916L12.698,25.028L12.622,25.14L12.547,25.252L12.472,25.365L12.398,25.478L12.324,25.591L12.25,25.704L12.176,25.818L12.103,25.931L12.03,26.045L11.958,26.16L11.885,26.274L11.814,26.389L11.742,26.504L11.671,26.619L11.6,26.734L11.529,26.85L11.459,26.966L11.389,27.082L11.32,27.198L11.251,27.314L11.182,27.431L11.114,27.548L11.045,27.665L10.978,27.783L10.91,27.9L10.843,28.018L10.776,28.136L10.71,28.254L10.644,28.373L10.578,28.492L10.513,28.611L10.448,28.73L10.383,28.849L10.319,28.969L10.255,29.088L10.192,29.208L10.128,29.329L10.065,29.449L10.003,29.57L9.941,29.69L9.879,29.812L9.818,29.933L9.756,30.054L9.696,30.176L9.635,30.298L9.575,30.42L9.516,30.542L9.456,30.665L9.397,30.787L9.339,30.91L9.281,31.033L9.223,31.157L9.165,31.28L9.108,31.404L9.052,31.528L8.995,31.652L8.939,31.776L8.883,31.901L8.828,32.025L8.773,32.15L8.719,32.275L8.665,32.401L8.611,32.526L8.557,32.652L8.504,32.778L8.452,32.904L8.399,33.03L8.347,33.157L8.296,33.283L8.245,33.41L8.194,33.537L8.143,33.664L8.093,33.792L8.044,33.919L7.994,34.047L7.946,34.175L7.897,34.303L7.849,34.431L7.801,34.56L7.754,34.689L7.707,34.818L7.66,34.947L7.614,35.076L7.568,35.205L7.523,35.335L7.477,35.465L7.433,35.595L7.388,35.725L7.345,35.855L7.301,35.986L7.258,36.116L7.215,36.247L7.173,36.378L7.131,36.509L7.089,36.641L7.048,36.772L7.007,36.904L6.967,37.036L6.927,37.168L6.887,37.3L6.848,37.433L6.809,37.565L6.771,37.698L6.733,37.831L6.695,37.964L6.658,38.097L6.621,38.231L6.585,38.364L6.549,38.498L6.513,38.632L6.478,38.766L6.443,38.9L6.409,39.034L6.375,39.169L6.341,39.304L6.308,39.439L6.275,39.574L6.243,39.709L6.211,39.844L6.18,39.98L6.148,40.115L6.118,40.251L6.087,40.387L6.057,40.523L6.028,40.66L5.999,40.796L5.97,40.933L5.942,41.07L5.914,41.206L5.887,41.344L5.86,41.481L5.833,41.618L5.807,41.756L5.781,41.893L5.756,42.031L5.731,42.169L5.707,42.307L5.683,42.445L5.659,42.584L5.636,42.722L5.613,42.861L5.591,43L5.569,43.139L5.547,43.278L5.526,43.417L5.505,43.557L5.485,43.696L5.465,43.836L5.446,43.976L5.427,44.116L5.409,44.256L5.391,44.396L5.373,44.537L5.356,44.677L5.339,44.818L5.323,44.959L5.307,45.1L5.291,45.241L5.276,45.382L5.261,45.524L5.247,45.665L5.234,45.807L5.22,45.949L5.207,46.091L5.195,46.233L5.183,46.375L5.172,46.517L5.161,46.659L5.15,46.802L5.14,46.945L5.13,47.088L5.121,47.231L5.112,47.374L5.103,47.517L5.095,47.66L5.088,47.804L5.081,47.947L5.074,48.091L5.068,48.235L5.062,48.379L5.057,48.523L5.052,48.667L5.048,48.812L5.044,48.956L5.041,49.101L5.038,49.245L5.035,49.39L5.033,49.535L5.031,49.68L5.03,49.825L5.03,49.971L5.029,50.116L5.03,50.262L5.03,50.407L5.031,50.552L5.033,50.697L5.035,50.842L5.038,50.987L5.041,51.132L5.044,51.276L5.048,51.421L5.052,51.565L5.057,51.709L5.062,51.853L5.068,51.997L5.074,52.141L5.081,52.285L5.088,52.429L5.095,52.572L5.103,52.715L5.112,52.859L5.121,53.002L5.13,53.145L5.14,53.287L5.15,53.43L5.161,53.573L5.172,53.715L5.183,53.857L5.195,54L5.207,54.142L5.22,54.284L5.234,54.425L5.247,54.567L5.261,54.709L5.276,54.85L5.291,54.991L5.307,55.132L5.323,55.273L5.339,55.414L5.356,55.555L5.373,55.695L5.391,55.836L5.409,55.976L5.427,56.116L5.446,56.256L5.465,56.396L5.485,56.536L5.505,56.675L5.526,56.815L5.547,56.954L5.569,57.093L5.591,57.232L5.613,57.371L5.636,57.51L5.659,57.648L5.683,57.787L5.707,57.925L5.731,58.063L5.756,58.201L5.781,58.339L5.807,58.477L5.833,58.614L5.86,58.752L5.887,58.889L5.914,59.026L5.942,59.163L5.97,59.299L5.999,59.436L6.028,59.573L6.057,59.709L6.087,59.845L6.118,59.981L6.148,60.117L6.18,60.252L6.211,60.388L6.243,60.523L6.275,60.659L6.308,60.794L6.341,60.928L6.375,61.063L6.409,61.198L6.443,61.332L6.478,61.466L6.513,61.6L6.549,61.734L6.585,61.868L6.621,62.002L6.658,62.135L6.695,62.268L6.733,62.401L6.771,62.534L6.809,62.667L6.848,62.8L6.887,62.932L6.927,63.064L6.967,63.196L7.007,63.328L7.048,63.46L7.089,63.591L7.131,63.723L7.173,63.854L7.215,63.985L7.258,64.116L7.301,64.247L7.345,64.377L7.388,64.507L7.433,64.638L7.477,64.768L7.523,64.897L7.568,65.027L7.614,65.156L7.66,65.286L7.707,65.415L7.754,65.544L7.801,65.672L7.849,65.801L7.897,65.929L7.946,66.057L7.994,66.185L8.044,66.313L8.093,66.441L8.143,66.568L8.194,66.695L8.245,66.822L8.296,66.949L8.347,67.076L8.399,67.202L8.452,67.328L8.504,67.454L8.557,67.58L8.611,67.706L8.665,67.831L8.719,67.957L8.773,68.082L8.828,68.207L8.883,68.331L8.939,68.456L8.995,68.58L9.052,68.704L9.108,68.828L9.165,68.952L9.223,69.076L9.281,69.199L9.339,69.322L9.397,69.445L9.456,69.568L9.516,69.69L9.575,69.812L9.635,69.934L9.696,70.056L9.756,70.178L9.818,70.299L9.879,70.421L9.941,70.542L10.003,70.663L10.065,70.783L10.128,70.904L10.192,71.024L10.255,71.144L10.319,71.264L10.383,71.383L10.448,71.503L10.513,71.622L10.578,71.741L10.644,71.859L10.71,71.978L10.776,72.096L10.843,72.214L10.91,72.332L10.978,72.45L11.045,72.567L11.114,72.684L11.182,72.801L11.251,72.918L11.32,73.034L11.389,73.151L11.459,73.267L11.529,73.382L11.6,73.498L11.671,73.613L11.742,73.729L11.814,73.843L11.885,73.958L11.958,74.073L12.03,74.187L12.103,74.301L12.176,74.415L12.25,74.528L12.324,74.641L12.398,74.754L12.472,74.867L12.547,74.98L12.622,75.092L12.698,75.204L12.774,75.316L12.85,75.428L12.927,75.539L13.003,75.65L13.081,75.761L13.158,75.872L13.236,75.982L13.314,76.093L13.392,76.203L13.471,76.312L13.55,76.422L13.63,76.531L13.709,76.64L13.79,76.749L13.87,76.857L13.951,76.965L14.032,77.073L14.113,77.181L14.195,77.289L14.277,77.396L14.359,77.503L14.442,77.61L14.524,77.716L14.608,77.822L14.691,77.928L14.775,78.034L14.859,78.139L14.944,78.244L15.028,78.349L15.114,78.454L15.199,78.558L15.285,78.663L15.371,78.767L15.457,78.87L15.544,78.974L15.631,79.077L15.718,79.179L15.805,79.282L15.893,79.384L15.981,79.486L16.07,79.588L16.159,79.69L16.248,79.791L16.337,79.892L16.426,79.993L16.516,80.093L16.607,80.193L16.697,80.293L16.788,80.393L16.879,80.492L16.971,80.591L17.062,80.69L17.154,80.788L17.247,80.887L17.339,80.985L17.432,81.082L17.525,81.18L17.619,81.277L17.712,81.374L17.806,81.47L17.901,81.567L17.995,81.663L18.09,81.758L18.185,81.854L18.281,81.949L18.377,82.044L18.472,82.138L18.569,82.233L18.665,82.327L18.762,82.421L18.859,82.514L18.957,82.607L19.054,82.7L19.153,82.793L19.251,82.885L19.349,82.977L19.448,83.069L19.547,83.16L19.646,83.251L19.746,83.342L19.846,83.432L19.946,83.523L20.047,83.613L20.147,83.702L20.248,83.792L20.349,83.881L20.451,83.969L20.553,84.058L20.655,84.146L20.757,84.234L20.86,84.321L20.963,84.409L21.066,84.496L21.169,84.582L21.273,84.669L21.377,84.755L21.481,84.84L21.585,84.926L21.69,85.011L21.795,85.096L21.9,85.18L22.005,85.264L22.111,85.348L22.217,85.432L22.323,85.515L22.43,85.598L22.536,85.68L22.643,85.763L22.751,85.845L22.858,85.926L22.966,86.008L23.074,86.089L23.182,86.169L23.29,86.25L23.399,86.33L23.508,86.409L23.617,86.489L23.727,86.568L23.837,86.647L23.947,86.725L24.057,86.803L24.167,86.881L24.278,86.959L24.389,87.036L24.5,87.113L24.611,87.189L24.723,87.265L24.835,87.341L24.947,87.417L25.059,87.492L25.172,87.567L25.285,87.641L25.398,87.716L25.511,87.789L25.625,87.863L25.738,87.936L25.852,88.009L25.967,88.082L26.081,88.154L26.196,88.226L26.311,88.297L26.426,88.368L26.541,88.439L26.657,88.51L26.773,88.58L26.889,88.65L27.005,88.719L27.121,88.788L27.238,88.857L27.355,88.926L27.472,88.994L27.59,89.061L27.707,89.129L27.825,89.196L27.943,89.263L28.061,89.329L28.18,89.395L28.299,89.461L28.418,89.526L28.537,89.591L28.656,89.656L28.776,89.72L28.895,89.784L29.015,89.848L29.136,89.911L29.256,89.974L29.377,90.036L29.497,90.098L29.619,90.16L29.74,90.222L29.861,90.283L29.983,90.343L30.105,90.404L30.227,90.464L30.349,90.523L30.472,90.583L30.594,90.642L30.717,90.7L30.84,90.759L30.964,90.816L31.087,90.874L31.211,90.931L31.335,90.988L31.459,91.044L31.583,91.1L31.708,91.156L31.832,91.211L31.957,91.266L32.083,91.32L32.208,91.375L32.333,91.428L32.459,91.482L32.585,91.535L32.711,91.588L32.837,91.64L32.964,91.692L33.09,91.743L33.217,91.795L33.344,91.845L33.471,91.896L33.599,91.946L33.726,91.996L33.854,92.045L33.982,92.094L34.11,92.142L34.238,92.19L34.367,92.238L34.496,92.286L34.625,92.332L34.754,92.379L34.883,92.425L35.012,92.471L35.142,92.517L35.272,92.562L35.402,92.606L35.532,92.651L35.662,92.695L35.793,92.738L35.923,92.781L36.054,92.824L36.185,92.866L36.316,92.908L36.448,92.95L36.579,92.991L36.711,93.032L36.843,93.072L36.975,93.112L37.107,93.152L37.24,93.191L37.372,93.23L37.505,93.268L37.638,93.306L37.771,93.344L37.904,93.381L38.038,93.418L38.171,93.454L38.305,93.49L38.439,93.526L38.573,93.561L38.707,93.596L38.841,93.63L38.976,93.664L39.111,93.698L39.246,93.731L39.381,93.764L39.516,93.796L39.651,93.828L39.787,93.86L39.922,93.891L40.058,93.921L40.194,93.952L40.33,93.982L40.467,94.011L40.603,94.04L40.74,94.069L40.877,94.097L41.013,94.125L41.15,94.152L41.288,94.179L41.425,94.206L41.563,94.232L41.7,94.258L41.838,94.283L41.976,94.308L42.114,94.333L42.252,94.357L42.391,94.38L42.529,94.403L42.668,94.426L42.807,94.449L42.946,94.471L43.085,94.492L43.224,94.513L43.364,94.534L43.503,94.554L43.643,94.574L43.783,94.593L43.923,94.612L44.063,94.631L44.203,94.649L44.344,94.666L44.484,94.684L44.625,94.7L44.766,94.717L44.907,94.733L45.048,94.748L45.189,94.763L45.331,94.778L45.472,94.792L45.614,94.806L45.756,94.819L45.898,94.832L46.04,94.844L46.182,94.856L46.324,94.868L46.466,94.879L46.609,94.889L46.752,94.9L46.894,94.909L47.038,94.919L47.181,94.927L47.324,94.936L47.467,94.944L47.611,94.951L47.754,94.958L47.898,94.965L48.042,94.971L48.186,94.977L48.33,94.982L48.474,94.987L48.619,94.991L48.763,94.995L48.908,94.999L49.052,95.002L49.197,95.004L49.342,95.006L49.487,95.008L49.632,95.009L49.778,95.01L49.923,95.01L50.069,95.01L50.214,95.009L50.359,95.008L50.504,95.006L50.649,95.004L50.794,95.002L50.939,94.999L51.083,94.995L51.228,94.991L51.372,94.987L51.516,94.982L51.66,94.977L51.804,94.971L51.948,94.965L52.092,94.958L52.236,94.951L52.379,94.944L52.522,94.936L52.666,94.927L52.809,94.919L52.952,94.909L53.094,94.9L53.237,94.889L53.38,94.879L53.522,94.868L53.664,94.856L53.807,94.844L53.949,94.832L54.09,94.819L54.232,94.806L54.374,94.792L54.516,94.778L54.657,94.763L54.798,94.748L54.939,94.733L55.08,94.717L55.221,94.7L55.362,94.684L55.502,94.666L55.643,94.649L55.783,94.631L55.923,94.612L56.063,94.593L56.203,94.574L56.343,94.554L56.482,94.534L56.622,94.513L56.761,94.492L56.9,94.471L57.039,94.449L57.178,94.426L57.317,94.403L57.455,94.38L57.594,94.357L57.732,94.333L57.87,94.308L58.008,94.283L58.146,94.258L58.284,94.232L58.421,94.206L58.558,94.179L58.696,94.152L58.833,94.125L58.97,94.097L59.106,94.069L59.243,94.04L59.379,94.011L59.516,93.982L59.652,93.952L59.788,93.921L59.924,93.891L60.059,93.86L60.195,93.828L60.33,93.796L60.466,93.764L60.601,93.731L60.735,93.698L60.87,93.664L61.005,93.63L61.139,93.596L61.273,93.561L61.408,93.526L61.541,93.49L61.675,93.454L61.809,93.418L61.942,93.381L62.075,93.344L62.208,93.306L62.341,93.268L62.474,93.23L62.607,93.191L62.739,93.152L62.871,93.112L63.003,93.072L63.135,93.032L63.267,92.991L63.398,92.95L63.53,92.908L63.661,92.866L63.792,92.824L63.923,92.781L64.054,92.738L64.184,92.695L64.314,92.651L64.445,92.606L64.575,92.562L64.704,92.517L64.834,92.471L64.963,92.425L65.093,92.379L65.222,92.332L65.35,92.286L65.479,92.238L65.608,92.19L65.736,92.142L65.864,92.094L65.992,92.045L66.12,91.996L66.247,91.946L66.375,91.896L66.502,91.845L66.629,91.795L66.756,91.743L66.883,91.692L67.009,91.64L67.135,91.588L67.261,91.535L67.387,91.482L67.513,91.428L67.638,91.375L67.764,91.32L67.889,91.266L68.014,91.211L68.139,91.156L68.263,91.1L68.387,91.044L68.511,90.988L68.635,90.931L68.759,90.874L68.883,90.816L69.006,90.759L69.129,90.7L69.252,90.642L69.375,90.583L69.497,90.523L69.619,90.464L69.741,90.404L69.863,90.343L69.985,90.283L70.106,90.222L70.228,90.16L70.349,90.098L70.47,90.036L70.59,89.974L70.711,89.911L70.831,89.848L70.951,89.784L71.071,89.72L71.19,89.656L71.31,89.591L71.429,89.526L71.548,89.461L71.666,89.395L71.785,89.329L71.903,89.263L72.021,89.196L72.139,89.129L72.257,89.061L72.374,88.994L72.491,88.926L72.608,88.857L72.725,88.788L72.841,88.719L72.958,88.65L73.074,88.58L73.19,88.51L73.305,88.439L73.42,88.368L73.535,88.297L73.65,88.226L73.765,88.154L73.88,88.082L73.994,88.009L74.108,87.936L74.222,87.863L74.335,87.789L74.448,87.716L74.562,87.641L74.674,87.567L74.787,87.492L74.899,87.417L75.011,87.341L75.123,87.265L75.235,87.189L75.346,87.113L75.457,87.036L75.568,86.959L75.679,86.881L75.789,86.803L75.9,86.725L76.01,86.647L76.119,86.568L76.229,86.489L76.338,86.409L76.447,86.33L76.556,86.25L76.664,86.169L76.772,86.089L76.88,86.008L76.988,85.926L77.095,85.845L77.203,85.763L77.31,85.68L77.416,85.598L77.523,85.515L77.629,85.432L77.735,85.348L77.841,85.264L77.946,85.18L78.051,85.096L78.156,85.011L78.261,84.926L78.365,84.84L78.47,84.755L78.573,84.668L78.677,84.582L78.78,84.496L78.884,84.409L78.986,84.321L79.089,84.234L79.191,84.146L79.293,84.058L79.395,83.969L79.497,83.881L79.598,83.792L79.699,83.702L79.8,83.613L79.9,83.523L80,83.432L80.1,83.342L80.2,83.251L80.299,83.16L80.398,83.069L80.497,82.977L80.595,82.885L80.694,82.793L80.792,82.7L80.889,82.607L80.987,82.514L81.084,82.421L81.181,82.327L81.277,82.233L81.374,82.138L81.47,82.044L81.565,81.949L81.661,81.854L81.756,81.758L81.851,81.663L81.946,81.567L82.04,81.47L82.134,81.374L82.228,81.277L82.321,81.18L82.414,81.082L82.507,80.985L82.6,80.887L82.692,80.788L82.784,80.69L82.876,80.591L82.967,80.492L83.058,80.393L83.149,80.293L83.239,80.193L83.33,80.093L83.42,79.993L83.509,79.892L83.599,79.791L83.688,79.69L83.776,79.588L83.865,79.486L83.953,79.384L84.041,79.282L84.128,79.18L84.216,79.077L84.303,78.973L84.389,78.87L84.475,78.767L84.561,78.663L84.647,78.559L84.733,78.454L84.818,78.349L84.902,78.244L84.987,78.139L85.071,78.034L85.155,77.928L85.239,77.822L85.322,77.716L85.405,77.61L85.487,77.503L85.57,77.396L85.652,77.289L85.733,77.181L85.815,77.073L85.896,76.965L85.976,76.857L86.057,76.749L86.137,76.64L86.216,76.531L86.296,76.422L86.375,76.312L86.454,76.203L86.532,76.093L86.61,75.982L86.688,75.872L86.766,75.761L86.843,75.651L86.92,75.539L86.996,75.428L87.072,75.316L87.148,75.204L87.224,75.092L87.299,74.98L87.374,74.867L87.448,74.754L87.523,74.641L87.596,74.528L87.67,74.415L87.743,74.301L87.816,74.187L87.889,74.073L87.961,73.958L88.033,73.843L88.104,73.729L88.175,73.613L88.246,73.498L88.317,73.382L88.387,73.267L88.457,73.151L88.526,73.034L88.595,72.918L88.664,72.801L88.733,72.684L88.801,72.567L88.869,72.449L88.936,72.332L89.003,72.214L89.07,72.096L89.136,71.978L89.202,71.859L89.268,71.741L89.333,71.622L89.398,71.503L89.463,71.383L89.527,71.264L89.591,71.144L89.655,71.024L89.718,70.904L89.781,70.783L89.843,70.663L89.905,70.542L89.967,70.421L90.029,70.299L90.09,70.178L90.15,70.056L90.211,69.934L90.271,69.812L90.33,69.69L90.39,69.568L90.449,69.445L90.507,69.322L90.565,69.199L90.623,69.075L90.681,68.952L90.738,68.828L90.795,68.704L90.851,68.58L90.907,68.456L90.963,68.331L91.018,68.207L91.073,68.082L91.127,67.957L91.182,67.831L91.235,67.706L91.289,67.58L91.342,67.454L91.395,67.328L91.447,67.202L91.499,67.076L91.55,66.949L91.601,66.822L91.652,66.695L91.703,66.568L91.753,66.441L91.802,66.313L91.852,66.185L91.901,66.057L91.949,65.929L91.997,65.801L92.045,65.672L92.092,65.544L92.14,65.415L92.186,65.286L92.232,65.156L92.278,65.027L92.324,64.897L92.369,64.767L92.413,64.638L92.458,64.507L92.502,64.377L92.545,64.247L92.588,64.116L92.631,63.985L92.673,63.854L92.715,63.723L92.757,63.591L92.798,63.46L92.839,63.328L92.879,63.196L92.919,63.064L92.959,62.932L92.998,62.8L93.037,62.667L93.075,62.534L93.113,62.401L93.151,62.268L93.188,62.135L93.225,62.002L93.261,61.868L93.297,61.734L93.333,61.6L93.368,61.466L93.403,61.332L93.437,61.198L93.471,61.063L93.505,60.928L93.538,60.794L93.571,60.659L93.603,60.523L93.635,60.388L93.667,60.252L93.698,60.117L93.728,59.981L93.759,59.845L93.789,59.709L93.818,59.572L93.847,59.436L93.876,59.3L93.904,59.163L93.932,59.026L93.959,58.889L93.986,58.752L94.013,58.614L94.039,58.477L94.065,58.339L94.09,58.201L94.115,58.063L94.14,57.925L94.164,57.787L94.187,57.648L94.21,57.51L94.233,57.371L94.256,57.232L94.277,57.093L94.299,56.954L94.32,56.815L94.341,56.675L94.361,56.536L94.381,56.396L94.4,56.256L94.419,56.116L94.438,55.976L94.456,55.836L94.473,55.695L94.491,55.555L94.507,55.414L94.524,55.273L94.54,55.132L94.555,54.991L94.57,54.85L94.585,54.709L94.599,54.567L94.613,54.425L94.626,54.284L94.639,54.142L94.651,54L94.663,53.857L94.675,53.715L94.686,53.573L94.696,53.43L94.706,53.287L94.716,53.145L94.726,53.002L94.734,52.859L94.743,52.715L94.751,52.572L94.758,52.429L94.765,52.285L94.772,52.141L94.778,51.997L94.784,51.854L94.789,51.709L94.794,51.565L94.798,51.421L94.802,51.276L94.806,51.132L94.809,50.987L94.811,50.842L94.813,50.697L94.815,50.552L94.816,50.407L94.817,50.262L94.817,50.116L94.817,49.971L94.816,49.825L94.815,49.68L94.813,49.535L94.811,49.39L94.809,49.245L94.806,49.101L94.802,48.956L94.798,48.812L94.794,48.667L94.789,48.523L94.784,48.379L94.778,48.235L94.772,48.091L94.765,47.947L94.758,47.804L94.751,47.66L94.743,47.517L94.734,47.374L94.726,47.231L94.716,47.088L94.706,46.945L94.696,46.802L94.686,46.659L94.675,46.517L94.663,46.375L94.651,46.233L94.639,46.09L94.626,45.949L94.613,45.807L94.599,45.665L94.585,45.524L94.57,45.382L94.555,45.241L94.54,45.1L94.524,44.959L94.507,44.818L94.491,44.677L94.473,44.537L94.456,44.396L94.438,44.256L94.419,44.116L94.4,43.976L94.381,43.836L94.361,43.696L94.341,43.557L94.32,43.417L94.299,43.278L94.277,43.139L94.256,43L94.233,42.861L94.21,42.722L94.187,42.584L94.164,42.446L94.14,42.307L94.115,42.169L94.09,42.031L94.065,41.893L94.039,41.756L94.013,41.618L93.986,41.481L93.959,41.344L93.932,41.206L93.904,41.069L93.876,40.933L93.847,40.796L93.818,40.66L93.789,40.523L93.759,40.387L93.728,40.251L93.698,40.115L93.667,39.98L93.635,39.844L93.603,39.709L93.571,39.574L93.538,39.439L93.505,39.304L93.471,39.169L93.437,39.034L93.403,38.9L93.368,38.766L93.333,38.632L93.297,38.498L93.261,38.364L93.225,38.231L93.188,38.097L93.151,37.964L93.113,37.831L93.075,37.698L93.037,37.565L92.998,37.433L92.959,37.3L92.919,37.168L92.879,37.036L92.839,36.904L92.798,36.772L92.757,36.641L92.715,36.509L92.673,36.378L92.631,36.247L92.588,36.116L92.545,35.986L92.502,35.855L92.458,35.725L92.413,35.595L92.369,35.465L92.324,35.335L92.278,35.205L92.232,35.076L92.186,34.947L92.14,34.818L92.092,34.689L92.045,34.56L91.997,34.432L91.949,34.303L91.901,34.175L91.852,34.047L91.802,33.919L91.753,33.792L91.703,33.664L91.652,33.537L91.601,33.41L91.55,33.283L91.499,33.157L91.447,33.03L91.395,32.904L91.342,32.778L91.289,32.652L91.235,32.526L91.182,32.401L91.127,32.275L91.073,32.15L91.018,32.025L90.963,31.901L90.907,31.776L90.851,31.652L90.795,31.528L90.738,31.404L90.681,31.28L90.623,31.157L90.565,31.033L90.507,30.91L90.449,30.787L90.39,30.665L90.33,30.542L90.271,30.42L90.211,30.298L90.15,30.176L90.09,30.054L90.029,29.933L89.967,29.811L89.905,29.691L89.843,29.57L89.781,29.449L89.718,29.329L89.655,29.208L89.591,29.088L89.527,28.969L89.463,28.849L89.398,28.73L89.333,28.611L89.268,28.492L89.202,28.373L89.136,28.254L89.07,28.136L89.003,28.018L88.936,27.9L88.869,27.783L88.801,27.665L88.733,27.548L88.664,27.431L88.595,27.314L88.526,27.198L88.457,27.082L88.387,26.966L88.317,26.85L88.246,26.734L88.175,26.619L88.104,26.504L88.033,26.389L87.961,26.274L87.889,26.16L87.816,26.045L87.743,25.931L87.67,25.818L87.596,25.704L87.523,25.591L87.448,25.478L87.374,25.365L87.299,25.252L87.224,25.14L87.148,25.028L87.072,24.916L86.996,24.804L86.92,24.693L86.843,24.582L86.766,24.471L86.688,24.36L86.61,24.25L86.532,24.14L86.454,24.03L86.375,23.92L86.296,23.81L86.216,23.701L86.137,23.592L86.057,23.484L85.976,23.375L85.896,23.267L85.815,23.159L85.733,23.051L85.651,22.944L85.57,22.836L85.487,22.729L85.405,22.623L85.322,22.516L85.238,22.41L85.155,22.304L85.071,22.198L84.987,22.093L84.902,21.988L84.818,21.883L84.733,21.778L84.647,21.674L84.561,21.57L84.475,21.466L84.389,21.362L84.303,21.259L84.216,21.156L84.128,21.053L84.041,20.95L83.953,20.848L83.865,20.746L83.776,20.644L83.688,20.543L83.599,20.441L83.509,20.34L83.42,20.24L83.33,20.139L83.239,20.039L83.149,19.939L83.058,19.84L82.967,19.74L82.876,19.641L82.784,19.542L82.692,19.444L82.6,19.346L82.507,19.248L82.414,19.15L82.321,19.052L82.228,18.955L82.134,18.858L82.04,18.762L81.946,18.666L81.851,18.57L81.756,18.474L81.661,18.378L81.565,18.283L81.47,18.188L81.374,18.094L81.277,17.999L81.181,17.905L81.084,17.812L80.987,17.718L80.889,17.625L80.792,17.532L80.694,17.44L80.595,17.347L80.497,17.255L80.398,17.164L80.299,17.072L80.2,16.981L80.1,16.89L80,16.8L79.9,16.71L79.8,16.62L79.699,16.53L79.598,16.441L79.497,16.352L79.395,16.263L79.293,16.174L79.191,16.086L79.089,15.998L78.986,15.911L78.884,15.824L78.78,15.737L78.677,15.65L78.574,15.564L78.47,15.478L78.365,15.392L78.261,15.307L78.156,15.222L78.051,15.137L77.946,15.052L77.841,14.968L77.735,14.884L77.629,14.801L77.523,14.717L77.416,14.635L77.31,14.552L77.203,14.47L77.096,14.388L76.988,14.306L76.88,14.225L76.772,14.144L76.664,14.063L76.556,13.983L76.447,13.903L76.338,13.823L76.229,13.743L76.119,13.664L76.01,13.585L75.9,13.507L75.789,13.429L75.679,13.351L75.568,13.274L75.457,13.196L75.346,13.12L75.235,13.043L75.123,12.967L75.011,12.891L74.899,12.815L74.787,12.74L74.674,12.665L74.561,12.591L74.448,12.517L74.335,12.443L74.222,12.369L74.108,12.296L73.994,12.223L73.88,12.151L73.765,12.078L73.65,12.007L73.536,11.935L73.42,11.864L73.305,11.793L73.189,11.723L73.074,11.652L72.958,11.582L72.841,11.513L72.725,11.444L72.608,11.375L72.491,11.307L72.374,11.238L72.257,11.171L72.139,11.103L72.021,11.036L71.903,10.969L71.785,10.903L71.666,10.837L71.548,10.771L71.429,10.706L71.31,10.641L71.19,10.576L71.071,10.512L70.951,10.448L70.831,10.385L70.711,10.321L70.59,10.259L70.47,10.196L70.349,10.134L70.228,10.072L70.106,10.011L69.985,9.949L69.863,9.889L69.741,9.828L69.619,9.768L69.497,9.709L69.375,9.649L69.252,9.591L69.129,9.532L69.006,9.474L68.883,9.416L68.759,9.358L68.635,9.301L68.511,9.245L68.387,9.188L68.263,9.132L68.138,9.077L68.014,9.021L67.889,8.966L67.764,8.912L67.638,8.858L67.513,8.804L67.387,8.75L67.261,8.697L67.135,8.645L67.009,8.592L66.883,8.54L66.756,8.489L66.629,8.438L66.502,8.387L66.375,8.336L66.247,8.286L66.12,8.237L65.992,8.187L65.864,8.139L65.736,8.09L65.608,8.042L65.479,7.994L65.35,7.947L65.222,7.9L65.093,7.853L64.963,7.807L64.834,7.761L64.704,7.716L64.574,7.67L64.445,7.626L64.314,7.581L64.184,7.538L64.054,7.494L63.923,7.451L63.792,7.408L63.661,7.366L63.53,7.324L63.398,7.282L63.267,7.241L63.135,7.2L63.003,7.16L62.871,7.12L62.739,7.08L62.607,7.041L62.474,7.002L62.341,6.964L62.208,6.926L62.075,6.888L61.942,6.851L61.809,6.814L61.675,6.778L61.541,6.742L61.407,6.706L61.273,6.671L61.139,6.636L61.005,6.602L60.87,6.568L60.735,6.534L60.601,6.501L60.466,6.468L60.33,6.436L60.195,6.404L60.059,6.373L59.924,6.341L59.788,6.311L59.652,6.28L59.516,6.251L59.38,6.221L59.243,6.192L59.106,6.163L58.97,6.135L58.833,6.107L58.696,6.08L58.558,6.053L58.421,6.026L58.284,6L58.146,5.974L58.008,5.949L57.87,5.924L57.732,5.9L57.594,5.876L57.455,5.852L57.317,5.829L57.178,5.806L57.039,5.784L56.9,5.762L56.761,5.74L56.622,5.719L56.482,5.698L56.343,5.678L56.203,5.658L56.063,5.639L55.923,5.62L55.783,5.602L55.643,5.584L55.502,5.566L55.362,5.549L55.221,5.532L55.08,5.516L54.939,5.5L54.798,5.484L54.657,5.469L54.516,5.455L54.374,5.44L54.232,5.427L54.091,5.413L53.949,5.401L53.807,5.388L53.664,5.376L53.522,5.365L53.38,5.354L53.237,5.343L53.094,5.333L52.952,5.323L52.809,5.314L52.666,5.305L52.522,5.296L52.379,5.288L52.235,5.281L52.092,5.274L51.948,5.267L51.804,5.261L51.66,5.255L51.516,5.25L51.372,5.245L51.228,5.241L51.083,5.237L50.939,5.234L50.794,5.231L50.649,5.228L50.504,5.226L50.359,5.224L50.214,5.223L50.069,5.223L49.923,5.222L49.778,5.223Z" style="fill:url(#_Radial1);"/>
        </g>
        <g transform="matrix(1,0,0,1,-0.194244,4.58468)">
            <g transform="matrix(0.429542,0,0,0.429542,11.3702,12.9404)">
                <g transform="matrix(0.557341,0,0,0.60616,-56.5348,-80.5094)">
                    <g transform="matrix(0.610632,0,0,0.561453,49.7416,147.515)">
                        <text x="158.514px" y="412.443px" style="font-family:'Aclonica-Regular', 'Aclonica', serif;font-size:92.348px;fill:none;">R<tspan x="224.574px 300.644px 356.918px " y="412.443px 412.443px 412.443px ">OYA</tspan>LE</text>
                    </g>
                    <g transform="matrix(0.610632,0,0,0.561453,49.7416,147.515)">
                        <text x="158.514px" y="412.443px" style="font-family:'Aclonica-Regular', 'Aclonica', serif;font-size:92.348px;fill:rgb(58,58,58);">R<tspan x="224.574px 300.644px 356.918px " y="412.443px 412.443px 412.443px ">OYA</tspan>LE</text>
                    </g>
                </g>
                <g transform="matrix(0.349422,0,0,0.349422,-2.03649,-16.2662)">
                    <g transform="matrix(0.643593,0,0,0.643593,45.5309,119.886)">
                        <text x="156.888px" y="408.856px" style="font-family:'Aclonica-Regular', 'Aclonica', serif;font-size:87.994px;fill:none;">A<tspan x="226.234px " y="408.856px ">p</tspan>ache</text>
                    </g>
                    <g transform="matrix(0.643593,0,0,0.643593,45.5309,119.886)">
                        <text x="156.888px" y="408.856px" style="font-family:'Aclonica-Regular', 'Aclonica', serif;font-size:87.994px;fill:rgb(59,59,59);">A<tspan x="226.234px " y="408.856px ">p</tspan>ache</text>
                    </g>
                </g>
                <g transform="matrix(0.0697017,0,0,0.180251,144.281,60.427)">
                    <g transform="matrix(1.66435,0,0,0.643593,-84.8707,119.886)">
                        <text x="138.691px" y="410.761px" style="font-family:'Aclonica-Regular', 'Aclonica', serif;font-size:90.306px;fill:none;">T<tspan x="190.326px " y="410.761px ">M</tspan></text>
                    </g>
                    <g transform="matrix(1.66435,0,0,0.643593,-84.8707,119.886)">
                        <text x="138.691px" y="410.761px" style="font-family:'Aclonica-Regular', 'Aclonica', serif;font-size:90.306px;fill:rgb(59,59,59);">T<tspan x="190.326px " y="410.761px ">M</tspan></text>
                    </g>
                </g>
            </g>
            <g transform="matrix(0.424635,0,0,0.424635,-5.72869,-12.0435)">
                <g transform="matrix(0.5,0,0,0.5,0,0.406773)">
                    <path d="M240.415,164.062C236.546,159.039 234.308,152.779 234.308,146.128C234.308,129.907 247.478,116.737 263.699,116.737C279.92,116.737 293.09,129.907 293.09,146.128C293.09,152.729 290.886,158.939 287.078,163.939L337.199,232.644L386.955,199.797C386.757,198.421 386.656,197.026 386.656,195.621C386.656,179.4 399.826,166.23 416.047,166.23C432.268,166.23 445.438,179.4 445.438,195.621C445.438,209.881 435.26,221.783 421.778,224.452L405.39,288.553C412.598,293.909 417.268,302.488 417.268,312.158C417.268,328.379 404.098,341.549 387.877,341.549C371.656,341.549 358.486,328.379 358.486,312.158C358.486,306.778 359.954,301.629 362.588,297.183L332.745,256.329L289.888,284.708C311.375,286.632 333.384,290.827 356.798,297.283C353.769,301.678 352.717,307.122 353.235,313.357C288.124,296.144 235.229,296.382 173.992,313.342C174.286,307.579 173.657,302.043 171.111,297.213C194.134,290.61 216.008,286.395 237.673,284.555L194.57,256.066L164.889,296.866C167.642,301.385 169.181,306.651 169.181,312.158C169.181,328.379 156.011,341.549 139.79,341.549C123.569,341.549 110.399,328.379 110.399,312.158C110.399,302.878 114.712,294.56 121.486,289.162L105.226,224.495C91.636,221.911 81.348,209.958 81.348,195.621C81.348,179.4 94.518,166.23 110.739,166.23C126.96,166.23 140.129,179.4 140.129,195.621C140.129,196.986 140.034,198.342 139.848,199.68L190.348,233.04L240.415,164.062ZM375.693,285.412L375.75,285.386L381.814,298.772C376.558,301.153 373.182,306.389 373.182,312.158C373.182,320.269 379.766,326.854 387.877,326.854C395.988,326.854 402.572,320.269 402.572,312.158C402.572,304.042 395.993,297.463 387.877,297.463L387.877,282.797L387.873,282.795L387.877,282.781L387.877,282.768L387.881,282.768L403.321,222.114L403.29,222.099L409.669,208.86C411.658,209.819 413.839,210.316 416.047,210.316C424.158,210.316 430.743,203.732 430.743,195.621C430.743,187.511 424.158,180.926 416.047,180.926C407.937,180.926 401.352,187.511 401.352,195.621C401.352,199.304 402.734,202.852 405.226,205.563L394.456,215.458L394.459,215.463L394.43,215.482L394.404,215.506L394.4,215.501L347.398,246.626L375.693,285.412ZM180.422,246.715L132.683,215.162L132.69,215.147L121.719,205.388C124.112,202.698 125.434,199.222 125.434,195.621C125.434,187.511 118.849,180.926 110.739,180.926C102.628,180.926 96.043,187.511 96.043,195.621C96.043,203.732 102.628,210.316 110.739,210.316C112.85,210.316 114.936,209.862 116.856,208.983L122.95,222.294L122.96,222.292L138.165,282.812L138.174,282.812L138.177,282.857L138.178,282.863C138.181,282.867 138.181,282.872 138.178,282.878L138.982,297.485C131.192,297.914 125.095,304.356 125.095,312.158C125.095,320.269 131.679,326.854 139.79,326.854C147.9,326.854 154.485,320.269 154.485,312.158C154.485,306.453 151.183,301.263 146.014,298.846L152.239,285.534L152.245,285.537L180.422,246.715ZM322.522,242.333L272.675,174.09L272.689,174.08L268.198,160.117C274.274,158.163 278.394,152.51 278.394,146.128C278.394,138.017 271.81,131.432 263.699,131.432C255.588,131.432 249.004,138.017 249.004,146.128C249.004,152.429 253.02,158.028 258.989,160.048L254.286,173.943L254.303,173.956L204.513,242.397L263.45,281.33L322.522,242.333Z" style="fill:url(#_Linear2);"/>
                </g>
                <g transform="matrix(1.17748,0,0,1.17748,13.9483,17.5652)">
                    <path d="M64.772,90.187L61.388,94.858L67.19,99.089L70.777,94.169L64.772,90.187Z" style="fill:url(#_Linear3);"/>
                </g>
                <g transform="matrix(1.17748,0,0,1.17748,23.1364,4.9136)">
                    <path d="M64.767,90.188L61.178,95.132L67.195,99.103L70.777,94.175L64.767,90.188Z" style="fill:url(#_Linear4);"/>
                </g>
                <g transform="matrix(1.17748,0,0,1.17748,97.7277,5.21976)">
                    <path d="M65.971,90.886L60.19,94.701L64.522,100.638L70.445,96.715L65.971,90.886Z" style="fill:url(#_Linear5);"/>
                </g>
                <g transform="matrix(1.17748,0,0,1.17748,80.3321,15.8227)">
                    <path d="M68.731,89.811L62.876,93.676L66.952,99.805L73.073,95.753L68.731,89.811Z" style="fill:url(#_Linear6);"/>
                </g>
            </g>
        </g>
    </g>
    <defs>
        <radialGradient id="_Radial1" cx="0" cy="0" r="1" gradientUnits="userSpaceOnUse" gradientTransform="matrix(-26.9816,-57.212,61.0844,-28.8078,76.6672,58.3667)"><stop offset="0" style="stop-color:rgb(247,103,46);stop-opacity:1"/><stop offset="1" style="stop-color:rgb(246,15,14);stop-opacity:1"/></radialGradient>
        <linearGradient id="_Linear2" x1="0" y1="0" x2="1" y2="0" gradientUnits="userSpaceOnUse" gradientTransform="matrix(326.497,207.39,-207.39,326.497,103.311,132.936)"><stop offset="0" style="stop-color:rgb(246,14,14);stop-opacity:1"/><stop offset="1" style="stop-color:rgb(246,102,41);stop-opacity:1"/></linearGradient>
        <linearGradient id="_Linear3" x1="0" y1="0" x2="1" y2="0" gradientUnits="userSpaceOnUse" gradientTransform="matrix(3.03821,-4.86716,4.86716,3.03821,64.3976,96.927)"><stop offset="0" style="stop-color:black;stop-opacity:0"/><stop offset="1" style="stop-color:black;stop-opacity:0.697902"/></linearGradient>
        <linearGradient id="_Linear4" x1="0" y1="0" x2="1" y2="0" gradientUnits="userSpaceOnUse" gradientTransform="matrix(-3.29383,4.89028,-4.89028,-3.29383,67.296,91.9826)"><stop offset="0" style="stop-color:black;stop-opacity:0"/><stop offset="1" style="stop-color:black;stop-opacity:0.697902"/></linearGradient>
        <linearGradient id="_Linear5" x1="0" y1="0" x2="1" y2="0" gradientUnits="userSpaceOnUse" gradientTransform="matrix(-5.53734,3.9265,-3.9265,-5.53734,66.1698,91.2657)"><stop offset="0" style="stop-color:black;stop-opacity:0"/><stop offset="1" style="stop-color:black;stop-opacity:0.697902"/></linearGradient>
        <linearGradient id="_Linear6" x1="0" y1="0" x2="1" y2="0" gradientUnits="userSpaceOnUse" gradientTransform="matrix(5.75599,-3.80153,3.80153,5.75599,62.9569,93.6755)"><stop offset="0" style="stop-color:black;stop-opacity:0"/><stop offset="1" style="stop-color:black;stop-opacity:0.697902"/></linearGradient>
    </defs>
</svg>
