<svg xmlns="//www.w3.org/2000/svg" width="1920" height="1080"><path d="M-135,-155L78,-180L252,-203Z" fill="#fff3b1" stroke="#fff3b1" stroke-width="1.51"/><path d="M86,1259L-116,1250L276,1270Z" fill="#cd835f" stroke="#cd835f" stroke-width="1.51"/><path d="M626,1269L276,1270L1135,1278Z" fill="#c76439" stroke="#c76439" stroke-width="1.51"/><path d="M1286,-205L1577,-184L1685,-201Z" fill="#fd9d6c" stroke="#fd9d6c" stroke-width="1.51"/><path d="M1701,1247L1543,1219L1772,1274Z" fill="#b40724" stroke="#b40724" stroke-width="1.51"/><path d="M1543,1219L1454,1219L1772,1274Z" fill="#bb0b23" stroke="#bb0b23" stroke-width="1.51"/><path d="M1454,1219L1135,1278L1772,1274Z" fill="#be1a25" stroke="#be1a25" stroke-width="1.51"/><path d="M1685,-201L1833,-171L1904,-176Z" fill="#e9936d" stroke="#e9936d" stroke-width="1.51"/><path d="M910,-206L1286,-205L2028,-207Z" fill="#ffa370" stroke="#ffa370" stroke-width="1.51"/><path d="M1286,-205L1685,-201L2028,-207Z" fill="#f4986e" stroke="#f4986e" stroke-width="1.51"/><path d="M1685,-201L1904,-176L2028,-207Z" fill="#e4916f" stroke="#e4916f" stroke-width="1.51"/><path d="M2049,960L1935,1031L2059,1160Z" fill="#b10425" stroke="#b10425" stroke-width="1.51"/><path d="M1935,1031L1921,1105L2059,1160Z" fill="#b10226" stroke="#b10226" stroke-width="1.51"/><path d="M2049,960L2059,1160L2065,854Z" fill="#b20824" stroke="#b20824" stroke-width="1.51"/><path d="M2048,50L1909,88L2075,215Z" fill="#ce7c4f" stroke="#ce7c4f" stroke-width="1.51"/><path d="M2075,215L1967,325L2080,372Z" fill="#c96a3d" stroke="#c96a3d" stroke-width="1.51"/><path d="M1896,719L2064,756L2091,609Z" fill="#c9362b" stroke="#c9362b" stroke-width="1.51"/><path d="M1923,578L1896,719L2091,609Z" fill="#ce432d" stroke="#ce432d" stroke-width="1.51"/><path d="M2064,435L1941,505L2091,609Z" fill="#c85433" stroke="#c85433" stroke-width="1.51"/><path d="M1941,505L1923,578L2091,609Z" fill="#cd4f31" stroke="#cd4f31" stroke-width="1.51"/><path d="M2065,854L2059,1160L2091,609Z" fill="#ba1825" stroke="#ba1825" stroke-width="1.51"/><path d="M2064,756L2065,854L2091,609Z" fill="#c22b2a" stroke="#c22b2a" stroke-width="1.51"/><path d="M2080,372L2064,435L2091,609Z" fill="#c45734" stroke="#c45734" stroke-width="1.51"/><path d="M1969,-35L2048,50L2100,-26Z" fill="#cd825b" stroke="#cd825b" stroke-width="1.51"/><path d="M2028,-207L1969,-35L2100,-26Z" fill="#cf8663" stroke="#cf8663" stroke-width="1.51"/><path d="M2048,50L2075,215L2100,-26Z" fill="#c87c53" stroke="#c87c53" stroke-width="1.51"/><path d="M2080,372L2091,609L2100,-26Z" fill="#c3663c" stroke="#c3663c" stroke-width="1.51"/><path d="M2075,215L2080,372L2100,-26Z" fill="#c57449" stroke="#c57449" stroke-width="1.51"/><path d="M1909,88L1900,242L2075,215Z" fill="#d47a48" stroke="#d47a48" stroke-width="1.51"/><path d="M1967,325L2064,435L2080,372Z" fill="#c96238" stroke="#c96238" stroke-width="1.51"/><path d="M2064,756L1928,865L2065,854Z" fill="#c32126" stroke="#c32126" stroke-width="1.51"/><path d="M1928,865L2049,960L2065,854Z" fill="#bf1524" stroke="#bf1524" stroke-width="1.51"/><path d="M1900,242L1967,325L2075,215Z" fill="#d17041" stroke="#d17041" stroke-width="1.51"/><path d="M1904,-176L1969,-35L2028,-207Z" fill="#d78b68" stroke="#d78b68" stroke-width="1.51"/><path d="M1896,719L1928,865L2064,756Z" fill="#cb2828" stroke="#cb2828" stroke-width="1.51"/><path d="M1967,325L1941,505L2064,435Z" fill="#ce6036" stroke="#ce6036" stroke-width="1.51"/><path d="M1955,1260L2044,1226L2059,1160Z" fill="#9b0026" stroke="#9b0026" stroke-width="1.51"/><path d="M1921,1105L1955,1260L2059,1160Z" fill="#a60026" stroke="#a60026" stroke-width="1.51"/><path d="M1928,865L1935,1031L2049,960Z" fill="#c00c23" stroke="#c00c23" stroke-width="1.51"/><path d="M1969,-35L1909,88L2048,50Z" fill="#d48257" stroke="#d48257" stroke-width="1.51"/><path d="M1828,641L1896,719L1923,578Z" fill="#d8432d" stroke="#d8432d" stroke-width="1.51"/><path d="M1838,857L1780,962L1928,865Z" fill="#d11723" stroke="#d11723" stroke-width="1.51"/><path d="M1928,865L1780,962L1935,1031Z" fill="#c90c22" stroke="#c90c22" stroke-width="1.51"/><path d="M1812,361L1805,476L1941,505Z" fill="#dd6134" stroke="#dd6134" stroke-width="1.51"/><path d="M1921,1105L1768,1147L1955,1260Z" fill="#b10026" stroke="#b10026" stroke-width="1.51"/><path d="M1812,361L1941,505L1967,325Z" fill="#d76437" stroke="#d76437" stroke-width="1.51"/><path d="M1904,-176L1793,-67L1969,-35Z" fill="#e08b64" stroke="#e08b64" stroke-width="1.51"/><path d="M1817,48L1909,88L1969,-35Z" fill="#dd8557" stroke="#dd8557" stroke-width="1.51"/><path d="M1793,-67L1817,48L1969,-35Z" fill="#e2895c" stroke="#e2895c" stroke-width="1.51"/><path d="M1896,719L1838,857L1928,865Z" fill="#d22526" stroke="#d22526" stroke-width="1.51"/><path d="M1768,1147L1772,1274L1955,1260Z" fill="#ad0026" stroke="#ad0026" stroke-width="1.51"/><path d="M1900,242L1812,361L1967,325Z" fill="#da6e3c" stroke="#da6e3c" stroke-width="1.51"/><path d="M1833,-171L1793,-67L1904,-176Z" fill="#e69069" stroke="#e69069" stroke-width="1.51"/><path d="M1800,198L1900,242L1909,88Z" fill="#de7d49" stroke="#de7d49" stroke-width="1.51"/><path d="M1805,476L1923,578L1941,505Z" fill="#d85832" stroke="#d85832" stroke-width="1.51"/><path d="M1780,962L1921,1105L1935,1031Z" fill="#c10624" stroke="#c10624" stroke-width="1.51"/><path d="M1777,767L1838,857L1896,719Z" fill="#d92a27" stroke="#d92a27" stroke-width="1.51"/><path d="M1780,962L1768,1147L1921,1105Z" fill="#c30425" stroke="#c30425" stroke-width="1.51"/><path d="M1805,476L1828,641L1923,578Z" fill="#dc5330" stroke="#dc5330" stroke-width="1.51"/><path d="M1817,48L1800,198L1909,88Z" fill="#e2834f" stroke="#e2834f" stroke-width="1.51"/><path d="M1800,198L1812,361L1900,242Z" fill="#e17540" stroke="#e17540" stroke-width="1.51"/><path d="M1828,641L1777,767L1896,719Z" fill="#dc372a" stroke="#dc372a" stroke-width="1.51"/><path d="M1800,198L1653,338L1812,361Z" fill="#e6743b" stroke="#e6743b" stroke-width="1.51"/><path d="M1652,78L1800,198L1817,48Z" fill="#e8864e" stroke="#e8864e" stroke-width="1.51"/><path d="M1702,738L1777,767L1828,641Z" fill="#e13728" stroke="#e13728" stroke-width="1.51"/><path d="M1805,476L1692,617L1828,641Z" fill="#e1522e" stroke="#e1522e" stroke-width="1.51"/><path d="M1639,840L1780,962L1838,857Z" fill="#d81b22" stroke="#d81b22" stroke-width="1.51"/><path d="M1777,767L1639,840L1838,857Z" fill="#dc2724" stroke="#dc2724" stroke-width="1.51"/><path d="M1668,976L1768,1147L1780,962Z" fill="#cd0c23" stroke="#cd0c23" stroke-width="1.51"/><path d="M1692,617L1702,738L1828,641Z" fill="#e3422a" stroke="#e3422a" stroke-width="1.51"/><path d="M1697,-77L1793,-67L1833,-171Z" fill="#ea9064" stroke="#ea9064" stroke-width="1.51"/><path d="M1685,-201L1697,-77L1833,-171Z" fill="#ee9369" stroke="#ee9369" stroke-width="1.51"/><path d="M905,1240L626,1269L1135,1278Z" fill="#c75634" stroke="#c75634" stroke-width="1.51"/><path d="M1768,1147L1701,1247L1772,1274Z" fill="#b30425" stroke="#b30425" stroke-width="1.51"/><path d="M1652,78L1653,188L1800,198Z" fill="#ec8549" stroke="#ec8549" stroke-width="1.51"/><path d="M1653,188L1653,338L1800,198Z" fill="#ea7b40" stroke="#ea7b40" stroke-width="1.51"/><path d="M1641,508L1692,617L1805,476Z" fill="#e65b2f" stroke="#e65b2f" stroke-width="1.51"/><path d="M1653,338L1805,476L1812,361Z" fill="#e46935" stroke="#e46935" stroke-width="1.51"/><path d="M1793,-67L1697,-77L1817,48Z" fill="#ea8d5d" stroke="#ea8d5d" stroke-width="1.51"/><path d="M1697,-77L1652,78L1817,48Z" fill="#ec8c57" stroke="#ec8c57" stroke-width="1.51"/><path d="M1668,976L1653,1139L1768,1147Z" fill="#c90a23" stroke="#c90a23" stroke-width="1.51"/><path d="M1653,338L1641,508L1805,476Z" fill="#e86632" stroke="#e86632" stroke-width="1.51"/><path d="M-135,-155L13,-170L78,-180Z" fill="#fff5b6" stroke="#fff5b6" stroke-width="1.51"/><path d="M1639,840L1668,976L1780,962Z" fill="#d9151f" stroke="#d9151f" stroke-width="1.51"/><path d="M1702,738L1639,840L1777,767Z" fill="#e22e25" stroke="#e22e25" stroke-width="1.51"/><path d="M1653,1139L1701,1247L1768,1147Z" fill="#bd0624" stroke="#bd0624" stroke-width="1.51"/><path d="M1274,1215L1135,1278L1454,1219Z" fill="#c82a28" stroke="#c82a28" stroke-width="1.51"/><path d="M1538,-27L1584,71L1652,78Z" fill="#f58e53" stroke="#f58e53" stroke-width="1.51"/><path d="M1528,997L1527,1110L1653,1139Z" fill="#d21021" stroke="#d21021" stroke-width="1.51"/><path d="M1535,375L1641,508L1653,338Z" fill="#ef6c32" stroke="#ef6c32" stroke-width="1.51"/><path d="M1528,997L1653,1139L1668,976Z" fill="#d41121" stroke="#d41121" stroke-width="1.51"/><path d="M1512,631L1527,756L1692,617Z" fill="#ee4626" stroke="#ee4626" stroke-width="1.51"/><path d="M1538,-27L1652,78L1697,-77Z" fill="#f39058" stroke="#f39058" stroke-width="1.51"/><path d="M1685,-201L1577,-184L1697,-77Z" fill="#f49668" stroke="#f49668" stroke-width="1.51"/><path d="M1653,1139L1543,1219L1701,1247Z" fill="#be0924" stroke="#be0924" stroke-width="1.51"/><path d="M1692,617L1527,756L1702,738Z" fill="#ea3d26" stroke="#ea3d26" stroke-width="1.51"/><path d="M1527,756L1639,840L1702,738Z" fill="#e83123" stroke="#e83123" stroke-width="1.51"/><path d="M1577,-184L1538,-27L1697,-77Z" fill="#f69562" stroke="#f69562" stroke-width="1.51"/><path d="M1535,375L1518,436L1641,508Z" fill="#f16a2f" stroke="#f16a2f" stroke-width="1.51"/><path d="M1573,179L1653,338L1653,188Z" fill="#f07e3f" stroke="#f07e3f" stroke-width="1.51"/><path d="M1639,840L1540,884L1668,976Z" fill="#e01e1f" stroke="#e01e1f" stroke-width="1.51"/><path d="M1641,508L1512,631L1692,617Z" fill="#ec552b" stroke="#ec552b" stroke-width="1.51"/><path d="M1584,71L1573,179L1652,78Z" fill="#f38a4c" stroke="#f38a4c" stroke-width="1.51"/><path d="M1573,179L1535,375L1653,338Z" fill="#f17938" stroke="#f17938" stroke-width="1.51"/><path d="M1652,78L1573,179L1653,188Z" fill="#f18848" stroke="#f18848" stroke-width="1.51"/><path d="M1540,884L1528,997L1668,976Z" fill="#df181d" stroke="#df181d" stroke-width="1.51"/><path d="M1286,-205L1377,-146L1577,-184Z" fill="#ffa16d" stroke="#ffa16d" stroke-width="1.51"/><path d="M1527,1110L1543,1219L1653,1139Z" fill="#c90d22" stroke="#c90d22" stroke-width="1.51"/><path d="M1527,756L1540,884L1639,840Z" fill="#e82b20" stroke="#e82b20" stroke-width="1.51"/><path d="M1518,436L1512,631L1641,508Z" fill="#f0602c" stroke="#f0602c" stroke-width="1.51"/><path d="M1426,495L1443,608L1512,631Z" fill="#f45e2b" stroke="#f45e2b" stroke-width="1.51"/><path d="M1426,495L1512,631L1518,436Z" fill="#f4652e" stroke="#f4652e" stroke-width="1.51"/><path d="M1436,354L1535,375L1573,179Z" fill="#f57b37" stroke="#f57b37" stroke-width="1.51"/><path d="M1390,197L1436,354L1573,179Z" fill="#f8843f" stroke="#f8843f" stroke-width="1.51"/><path d="M1443,-49L1538,-27L1577,-184Z" fill="#fb9860" stroke="#fb9860" stroke-width="1.51"/><path d="M1377,-146L1443,-49L1577,-184Z" fill="#fe9c66" stroke="#fe9c66" stroke-width="1.51"/><path d="M1409,96L1573,179L1584,71Z" fill="#f88d4b" stroke="#f88d4b" stroke-width="1.51"/><path d="M1538,-27L1409,96L1584,71Z" fill="#f99252" stroke="#f99252" stroke-width="1.51"/><path d="M1409,96L1390,197L1573,179Z" fill="#fa8e48" stroke="#fa8e48" stroke-width="1.51"/><path d="M1395,970L1432,1154L1527,1110Z" fill="#d81f22" stroke="#d81f22" stroke-width="1.51"/><path d="M1432,1154L1454,1219L1527,1110Z" fill="#cd1923" stroke="#cd1923" stroke-width="1.51"/><path d="M1512,631L1441,728L1527,756Z" fill="#f24425" stroke="#f24425" stroke-width="1.51"/><path d="M1441,728L1426,904L1527,756Z" fill="#ef3722" stroke="#ef3722" stroke-width="1.51"/><path d="M1395,970L1527,1110L1528,997Z" fill="#dc1d21" stroke="#dc1d21" stroke-width="1.51"/><path d="M1443,-49L1409,96L1538,-27Z" fill="#fc9658" stroke="#fc9658" stroke-width="1.51"/><path d="M1426,904L1528,997L1540,884Z" fill="#e5211d" stroke="#e5211d" stroke-width="1.51"/><path d="M1527,756L1426,904L1540,884Z" fill="#eb2d20" stroke="#eb2d20" stroke-width="1.51"/><path d="M1527,1110L1454,1219L1543,1219Z" fill="#c81323" stroke="#c81323" stroke-width="1.51"/><path d="M1426,904L1395,970L1528,997Z" fill="#e4241f" stroke="#e4241f" stroke-width="1.51"/><path d="M1436,354L1518,436L1535,375Z" fill="#f57332" stroke="#f57332" stroke-width="1.51"/><path d="M1443,608L1441,728L1512,631Z" fill="#f44f28" stroke="#f44f28" stroke-width="1.51"/><path d="M1436,354L1426,495L1518,436Z" fill="#f67031" stroke="#f67031" stroke-width="1.51"/><path d="M1395,970L1256,1160L1432,1154Z" fill="#db2725" stroke="#db2725" stroke-width="1.51"/><path d="M1247,383L1426,495L1436,354Z" fill="#fa7835" stroke="#fa7835" stroke-width="1.51"/><path d="M1308,738L1426,904L1441,728Z" fill="#f33e24" stroke="#f33e24" stroke-width="1.51"/><path d="M1426,495L1303,579L1443,608Z" fill="#f7652e" stroke="#f7652e" stroke-width="1.51"/><path d="M1308,738L1441,728L1443,608Z" fill="#f74c28" stroke="#f74c28" stroke-width="1.51"/><path d="M1303,579L1308,738L1443,608Z" fill="#f9592b" stroke="#f9592b" stroke-width="1.51"/><path d="M1313,59L1409,96L1443,-49Z" fill="#fe9957" stroke="#fe9957" stroke-width="1.51"/><path d="M1286,-25L1313,59L1443,-49Z" fill="#ff9d5c" stroke="#ff9d5c" stroke-width="1.51"/><path d="M1432,1154L1274,1215L1454,1219Z" fill="#cb2226" stroke="#cb2226" stroke-width="1.51"/><path d="M910,-206L1005,-164L1286,-205Z" fill="#ffbb7a" stroke="#ffbb7a" stroke-width="1.51"/><path d="M1272,972L1256,1160L1395,970Z" fill="#e32f25" stroke="#e32f25" stroke-width="1.51"/><path d="M1308,738L1244,888L1426,904Z" fill="#f23c24" stroke="#f23c24" stroke-width="1.51"/><path d="M1390,197L1252,215L1436,354Z" fill="#fc8941" stroke="#fc8941" stroke-width="1.51"/><path d="M1252,215L1247,383L1436,354Z" fill="#fd853b" stroke="#fd853b" stroke-width="1.51"/><path d="M1377,-146L1286,-25L1443,-49Z" fill="#ff9f63" stroke="#ff9f63" stroke-width="1.51"/><path d="M1247,383L1247,494L1426,495Z" fill="#fc7634" stroke="#fc7634" stroke-width="1.51"/><path d="M1256,1160L1274,1215L1432,1154Z" fill="#d12927" stroke="#d12927" stroke-width="1.51"/><path d="M1244,888L1395,970L1426,904Z" fill="#ec3021" stroke="#ec3021" stroke-width="1.51"/><path d="M1247,494L1303,579L1426,495Z" fill="#fa6e31" stroke="#fa6e31" stroke-width="1.51"/><path d="M1244,888L1272,972L1395,970Z" fill="#ec3322" stroke="#ec3322" stroke-width="1.51"/><path d="M1313,59L1390,197L1409,96Z" fill="#fd954f" stroke="#fd954f" stroke-width="1.51"/><path d="M1313,59L1252,215L1390,197Z" fill="#ff964c" stroke="#ff964c" stroke-width="1.51"/><path d="M1005,-164L1118,-142L1286,-205Z" fill="#ffb475" stroke="#ffb475" stroke-width="1.51"/><path d="M1286,-205L1286,-25L1377,-146Z" fill="#ffa46a" stroke="#ffa46a" stroke-width="1.51"/><path d="M1159,354L1247,383L1252,215Z" fill="#ff8b3e" stroke="#ff8b3e" stroke-width="1.51"/><path d="M1125,1124L1256,1160L1272,972Z" fill="#e03828" stroke="#e03828" stroke-width="1.51"/><path d="M1124,999L1125,1124L1272,972Z" fill="#e64128" stroke="#e64128" stroke-width="1.51"/><path d="M1118,-142L1134,-40L1286,-25Z" fill="#ffac68" stroke="#ffac68" stroke-width="1.51"/><path d="M1118,-142L1286,-25L1286,-205Z" fill="#ffaa6d" stroke="#ffaa6d" stroke-width="1.51"/><path d="M1116,739L1244,888L1308,738Z" fill="#f94d29" stroke="#f94d29" stroke-width="1.51"/><path d="M1303,579L1157,591L1308,738Z" fill="#fd612e" stroke="#fd612e" stroke-width="1.51"/><path d="M1157,591L1116,739L1308,738Z" fill="#fd5e2d" stroke="#fd5e2d" stroke-width="1.51"/><path d="M1286,-25L1120,75L1313,59Z" fill="#ffa15b" stroke="#ffa15b" stroke-width="1.51"/><path d="M1120,75L1252,215L1313,59Z" fill="#ff9e53" stroke="#ff9e53" stroke-width="1.51"/><path d="M620,-205L728,-187L910,-206Z" fill="#ffd185" stroke="#ffd185" stroke-width="1.51"/><path d="M1247,494L1157,591L1303,579Z" fill="#fd7033" stroke="#fd7033" stroke-width="1.51"/><path d="M1116,739L1120,860L1244,888Z" fill="#f75129" stroke="#f75129" stroke-width="1.51"/><path d="M1134,-40L1120,75L1286,-25Z" fill="#ffa861" stroke="#ffa861" stroke-width="1.51"/><path d="M1147,453L1247,494L1247,383Z" fill="#fe7f38" stroke="#fe7f38" stroke-width="1.51"/><path d="M1124,251L1159,354L1252,215Z" fill="#ff9344" stroke="#ff9344" stroke-width="1.51"/><path d="M1244,888L1124,999L1272,972Z" fill="#ed3d25" stroke="#ed3d25" stroke-width="1.51"/><path d="M1256,1160L1135,1278L1274,1215Z" fill="#cd332a" stroke="#cd332a" stroke-width="1.51"/><path d="M1120,75L1124,251L1252,215Z" fill="#ff9e4f" stroke="#ff9e4f" stroke-width="1.51"/><path d="M1125,1124L1135,1278L1256,1160Z" fill="#d23b2b" stroke="#d23b2b" stroke-width="1.51"/><path d="M1120,860L1124,999L1244,888Z" fill="#f14726" stroke="#f14726" stroke-width="1.51"/><path d="M1159,354L1147,453L1247,383Z" fill="#ff863b" stroke="#ff863b" stroke-width="1.51"/><path d="M1027,1233L905,1240L1135,1278Z" fill="#c84b30" stroke="#c84b30" stroke-width="1.51"/><path d="M1147,453L1157,591L1247,494Z" fill="#fd7a36" stroke="#fd7a36" stroke-width="1.51"/><path d="M753,1228L626,1269L905,1240Z" fill="#cb6037" stroke="#cb6037" stroke-width="1.51"/><path d="M1120,860L1053,974L1124,999Z" fill="#ef4e27" stroke="#ef4e27" stroke-width="1.51"/><path d="M1120,75L1008,213L1124,251Z" fill="#ffa651" stroke="#ffa651" stroke-width="1.51"/><path d="M1124,999L1036,1094L1125,1124Z" fill="#e2492b" stroke="#e2492b" stroke-width="1.51"/><path d="M1062,-42L1120,75L1134,-40Z" fill="#ffaf64" stroke="#ffaf64" stroke-width="1.51"/><path d="M1125,1124L1027,1233L1135,1278Z" fill="#ce442d" stroke="#ce442d" stroke-width="1.51"/><path d="M1006,624L1116,739L1157,591Z" fill="#fd7032" stroke="#fd7032" stroke-width="1.51"/><path d="M1147,453L1053,445L1157,591Z" fill="#fd8339" stroke="#fd8339" stroke-width="1.51"/><path d="M1053,445L1006,624L1157,591Z" fill="#fd8038" stroke="#fd8038" stroke-width="1.51"/><path d="M1124,251L1011,360L1159,354Z" fill="#ff9642" stroke="#ff9642" stroke-width="1.51"/><path d="M1053,445L1147,453L1159,354Z" fill="#fe8a3c" stroke="#fe8a3c" stroke-width="1.51"/><path d="M1011,360L1053,445L1159,354Z" fill="#fe913f" stroke="#fe913f" stroke-width="1.51"/><path d="M1118,-142L1062,-42L1134,-40Z" fill="#ffb36c" stroke="#ffb36c" stroke-width="1.51"/><path d="M1116,739L1009,840L1120,860Z" fill="#f85c2c" stroke="#f85c2c" stroke-width="1.51"/><path d="M1062,-42L1032,50L1120,75Z" fill="#ffb062" stroke="#ffb062" stroke-width="1.51"/><path d="M1006,624L1003,727L1116,739Z" fill="#fd6e32" stroke="#fd6e32" stroke-width="1.51"/><path d="M1032,50L1008,213L1120,75Z" fill="#ffae59" stroke="#ffae59" stroke-width="1.51"/><path d="M1053,974L1036,1094L1124,999Z" fill="#e74f2b" stroke="#e74f2b" stroke-width="1.51"/><path d="M1036,1094L1027,1233L1125,1124Z" fill="#d94a2e" stroke="#d94a2e" stroke-width="1.51"/><path d="M1003,727L1009,840L1116,739Z" fill="#fb642f" stroke="#fb642f" stroke-width="1.51"/><path d="M1009,840L1053,974L1120,860Z" fill="#f3572a" stroke="#f3572a" stroke-width="1.51"/><path d="M1008,213L1011,360L1124,251Z" fill="#ff9f48" stroke="#ff9f48" stroke-width="1.51"/><path d="M1005,-164L1062,-42L1118,-142Z" fill="#ffb872" stroke="#ffb872" stroke-width="1.51"/><path d="M252,-203L408,-178L620,-205Z" fill="#ffe699" stroke="#ffe699" stroke-width="1.51"/><path d="M1008,213L916,321L1011,360Z" fill="#fea348" stroke="#fea348" stroke-width="1.51"/><path d="M872,174L1008,213L1032,50Z" fill="#ffb359" stroke="#ffb359" stroke-width="1.51"/><path d="M912,1122L1027,1233L1036,1094Z" fill="#d95330" stroke="#d95330" stroke-width="1.51"/><path d="M904,992L1036,1094L1053,974Z" fill="#e8572d" stroke="#e8572d" stroke-width="1.51"/><path d="M1009,840L904,992L1053,974Z" fill="#f05c2a" stroke="#f05c2a" stroke-width="1.51"/><path d="M893,487L1006,624L1053,445Z" fill="#fd8d3c" stroke="#fd8d3c" stroke-width="1.51"/><path d="M934,-41L1032,50L1062,-42Z" fill="#ffb869" stroke="#ffb869" stroke-width="1.51"/><path d="M1005,-164L934,-41L1062,-42Z" fill="#ffbc70" stroke="#ffbc70" stroke-width="1.51"/><path d="M884,51L872,174L1032,50Z" fill="#ffb960" stroke="#ffb960" stroke-width="1.51"/><path d="M1011,360L893,487L1053,445Z" fill="#fe953f" stroke="#fe953f" stroke-width="1.51"/><path d="M886,857L904,992L1009,840Z" fill="#f3642d" stroke="#f3642d" stroke-width="1.51"/><path d="M912,1122L905,1240L1027,1233Z" fill="#d25532" stroke="#d25532" stroke-width="1.51"/><path d="M904,992L912,1122L1036,1094Z" fill="#e35a30" stroke="#e35a30" stroke-width="1.51"/><path d="M1003,727L913,737L1009,840Z" fill="#fb6c31" stroke="#fb6c31" stroke-width="1.51"/><path d="M934,-41L884,51L1032,50Z" fill="#ffbb67" stroke="#ffbb67" stroke-width="1.51"/><path d="M910,-206L934,-41L1005,-164Z" fill="#ffc279" stroke="#ffc279" stroke-width="1.51"/><path d="M913,737L1003,727L1006,624Z" fill="#fd7534" stroke="#fd7534" stroke-width="1.51"/><path d="M855,611L913,737L1006,624Z" fill="#fd7f37" stroke="#fd7f37" stroke-width="1.51"/><path d="M893,487L855,611L1006,624Z" fill="#fd8b3b" stroke="#fd8b3b" stroke-width="1.51"/><path d="M872,174L916,321L1008,213Z" fill="#ffad50" stroke="#ffad50" stroke-width="1.51"/><path d="M913,737L886,857L1009,840Z" fill="#f86b30" stroke="#f86b30" stroke-width="1.51"/><path d="M916,321L893,487L1011,360Z" fill="#fe9d42" stroke="#fe9d42" stroke-width="1.51"/><path d="M904,992L800,1017L912,1122Z" fill="#e76131" stroke="#e76131" stroke-width="1.51"/><path d="M800,1017L792,1095L912,1122Z" fill="#e36233" stroke="#e36233" stroke-width="1.51"/><path d="M779,364L893,487L916,321Z" fill="#fea244" stroke="#fea244" stroke-width="1.51"/><path d="M910,-206L757,-55L934,-41Z" fill="#ffc677" stroke="#ffc677" stroke-width="1.51"/><path d="M757,-55L884,51L934,-41Z" fill="#ffc26e" stroke="#ffc26e" stroke-width="1.51"/><path d="M408,-178L482,-176L620,-205Z" fill="#ffe192" stroke="#ffe192" stroke-width="1.51"/><path d="M729,200L779,364L872,174Z" fill="#ffb453" stroke="#ffb453" stroke-width="1.51"/><path d="M804,79L872,174L884,51Z" fill="#ffbd61" stroke="#ffbd61" stroke-width="1.51"/><path d="M886,857L749,902L904,992Z" fill="#f3692e" stroke="#f3692e" stroke-width="1.51"/><path d="M749,902L800,1017L904,992Z" fill="#ee6830" stroke="#ee6830" stroke-width="1.51"/><path d="M792,1095L753,1228L905,1240Z" fill="#d45f35" stroke="#d45f35" stroke-width="1.51"/><path d="M728,-187L757,-55L910,-206Z" fill="#ffcd7f" stroke="#ffcd7f" stroke-width="1.51"/><path d="M792,1095L905,1240L912,1122Z" fill="#da5d33" stroke="#da5d33" stroke-width="1.51"/><path d="M855,611L804,633L913,737Z" fill="#fe8339" stroke="#fe8339" stroke-width="1.51"/><path d="M804,633L780,697L913,737Z" fill="#fe8038" stroke="#fe8038" stroke-width="1.51"/><path d="M780,697L886,857L913,737Z" fill="#fc7534" stroke="#fc7534" stroke-width="1.51"/><path d="M872,174L779,364L916,321Z" fill="#ffad4d" stroke="#ffad4d" stroke-width="1.51"/><path d="M733,496L855,611L893,487Z" fill="#fe9740" stroke="#fe9740" stroke-width="1.51"/><path d="M757,-55L804,79L884,51Z" fill="#ffc36b" stroke="#ffc36b" stroke-width="1.51"/><path d="M780,697L749,902L886,857Z" fill="#f97433" stroke="#f97433" stroke-width="1.51"/><path d="M779,364L733,496L893,487Z" fill="#fea044" stroke="#fea044" stroke-width="1.51"/><path d="M359,1242L276,1270L626,1269Z" fill="#ca7749" stroke="#ca7749" stroke-width="1.51"/><path d="M733,496L804,633L855,611Z" fill="#fe923e" stroke="#fe923e" stroke-width="1.51"/><path d="M804,79L729,200L872,174Z" fill="#ffbd5d" stroke="#ffbd5d" stroke-width="1.51"/><path d="M623,752L749,902L780,697Z" fill="#fc7e37" stroke="#fc7e37" stroke-width="1.51"/><path d="M619,989L792,1095L800,1017Z" fill="#e86b34" stroke="#e86b34" stroke-width="1.51"/><path d="M749,902L619,989L800,1017Z" fill="#ef6f33" stroke="#ef6f33" stroke-width="1.51"/><path d="M609,567L780,697L804,633Z" fill="#fe8f3d" stroke="#fe8f3d" stroke-width="1.51"/><path d="M733,496L609,567L804,633Z" fill="#fe9941" stroke="#fe9941" stroke-width="1.51"/><path d="M605,102L729,200L804,79Z" fill="#ffc462" stroke="#ffc462" stroke-width="1.51"/><path d="M757,-55L656,-52L804,79Z" fill="#ffc970" stroke="#ffc970" stroke-width="1.51"/><path d="M656,-52L605,102L804,79Z" fill="#ffca6c" stroke="#ffca6c" stroke-width="1.51"/><path d="M623,752L652,900L749,902Z" fill="#f87a35" stroke="#f87a35" stroke-width="1.51"/><path d="M729,200L605,333L779,364Z" fill="#feb450" stroke="#feb450" stroke-width="1.51"/><path d="M603,1119L753,1228L792,1095Z" fill="#dc6837" stroke="#dc6837" stroke-width="1.51"/><path d="M619,989L603,1119L792,1095Z" fill="#e56f37" stroke="#e56f37" stroke-width="1.51"/><path d="M652,900L619,989L749,902Z" fill="#f37432" stroke="#f37432" stroke-width="1.51"/><path d="M728,-187L656,-52L757,-55Z" fill="#ffcf7b" stroke="#ffcf7b" stroke-width="1.51"/><path d="M606,434L733,496L779,364Z" fill="#fea847" stroke="#fea847" stroke-width="1.51"/><path d="M605,333L606,434L779,364Z" fill="#feb04b" stroke="#feb04b" stroke-width="1.51"/><path d="M609,567L623,752L780,697Z" fill="#ff8e3e" stroke="#ff8e3e" stroke-width="1.51"/><path d="M595,226L605,333L729,200Z" fill="#ffbd58" stroke="#ffbd58" stroke-width="1.51"/><path d="M603,1119L626,1269L753,1228Z" fill="#d26939" stroke="#d26939" stroke-width="1.51"/><path d="M620,-205L656,-52L728,-187Z" fill="#ffd482" stroke="#ffd482" stroke-width="1.51"/><path d="M605,102L595,226L729,200Z" fill="#fec560" stroke="#fec560" stroke-width="1.51"/><path d="M606,434L609,567L733,496Z" fill="#fea547" stroke="#fea547" stroke-width="1.51"/><path d="M606,434L518,499L609,567Z" fill="#feaa4c" stroke="#feaa4c" stroke-width="1.51"/><path d="M609,567L532,634L623,752Z" fill="#ff9744" stroke="#ff9744" stroke-width="1.51"/><path d="M484,1217L359,1242L626,1269Z" fill="#ce7345" stroke="#ce7345" stroke-width="1.51"/><path d="M603,1119L525,1147L626,1269Z" fill="#d86f3e" stroke="#d86f3e" stroke-width="1.51"/><path d="M544,970L619,989L652,900Z" fill="#f17838" stroke="#f17838" stroke-width="1.51"/><path d="M623,752L532,834L652,900Z" fill="#fa823b" stroke="#fa823b" stroke-width="1.51"/><path d="M620,-205L543,-54L656,-52Z" fill="#ffd681" stroke="#ffd681" stroke-width="1.51"/><path d="M543,-54L605,102L656,-52Z" fill="#ffd177" stroke="#ffd177" stroke-width="1.51"/><path d="M532,834L544,970L652,900Z" fill="#f67e3a" stroke="#f67e3a" stroke-width="1.51"/><path d="M544,970L525,1147L603,1119Z" fill="#e6763e" stroke="#e6763e" stroke-width="1.51"/><path d="M539,110L595,226L605,102Z" fill="#ffcc68" stroke="#ffcc68" stroke-width="1.51"/><path d="M543,-54L539,110L605,102Z" fill="#ffd273" stroke="#ffd273" stroke-width="1.51"/><path d="M544,970L603,1119L619,989Z" fill="#ea763b" stroke="#ea763b" stroke-width="1.51"/><path d="M482,-176L543,-54L620,-205Z" fill="#ffdc8a" stroke="#ffdc8a" stroke-width="1.51"/><path d="M532,634L484,719L623,752Z" fill="#ff9245" stroke="#ff9245" stroke-width="1.51"/><path d="M525,1147L484,1217L626,1269Z" fill="#d37041" stroke="#d37041" stroke-width="1.51"/><path d="M605,333L471,347L606,434Z" fill="#ffb753" stroke="#ffb753" stroke-width="1.51"/><path d="M484,719L532,834L623,752Z" fill="#fe8b42" stroke="#fe8b42" stroke-width="1.51"/><path d="M539,110L468,191L595,226Z" fill="#ffcc68" stroke="#ffcc68" stroke-width="1.51"/><path d="M595,226L471,347L605,333Z" fill="#ffbe59" stroke="#ffbe59" stroke-width="1.51"/><path d="M518,499L532,634L609,567Z" fill="#ffa44b" stroke="#ffa44b" stroke-width="1.51"/><path d="M471,347L518,499L606,434Z" fill="#ffb453" stroke="#ffb453" stroke-width="1.51"/><path d="M468,191L471,347L595,226Z" fill="#ffc662" stroke="#ffc662" stroke-width="1.51"/><path d="M408,-178L361,-16L482,-176Z" fill="#ffe391" stroke="#ffe391" stroke-width="1.51"/><path d="M471,347L396,438L518,499Z" fill="#ffb958" stroke="#ffb958" stroke-width="1.51"/><path d="M518,499L392,568L532,634Z" fill="#ffa950" stroke="#ffa950" stroke-width="1.51"/><path d="M361,-16L362,112L539,110Z" fill="#ffda7c" stroke="#ffda7c" stroke-width="1.51"/><path d="M361,-16L539,110L543,-54Z" fill="#ffd97e" stroke="#ffd97e" stroke-width="1.51"/><path d="M482,-176L361,-16L543,-54Z" fill="#ffde89" stroke="#ffde89" stroke-width="1.51"/><path d="M406,1014L525,1147L544,970Z" fill="#ea7d41" stroke="#ea7d41" stroke-width="1.51"/><path d="M532,834L390,897L544,970Z" fill="#f78440" stroke="#f78440" stroke-width="1.51"/><path d="M390,897L406,1014L544,970Z" fill="#f28443" stroke="#f28443" stroke-width="1.51"/><path d="M484,719L379,756L532,834Z" fill="#ff9147" stroke="#ff9147" stroke-width="1.51"/><path d="M362,112L468,191L539,110Z" fill="#ffd472" stroke="#ffd472" stroke-width="1.51"/><path d="M406,1014L349,1130L525,1147Z" fill="#e47f48" stroke="#e47f48" stroke-width="1.51"/><path d="M379,756L390,897L532,834Z" fill="#fb8e47" stroke="#fb8e47" stroke-width="1.51"/><path d="M392,568L484,719L532,634Z" fill="#ffa04d" stroke="#ffa04d" stroke-width="1.51"/><path d="M468,191L391,216L471,347Z" fill="#ffcb66" stroke="#ffcb66" stroke-width="1.51"/><path d="M349,1130L484,1217L525,1147Z" fill="#db7a46" stroke="#db7a46" stroke-width="1.51"/><path d="M396,438L392,568L518,499Z" fill="#ffb356" stroke="#ffb356" stroke-width="1.51"/><path d="M391,216L375,323L471,347Z" fill="#fec864" stroke="#fec864" stroke-width="1.51"/><path d="M349,1130L359,1242L484,1217Z" fill="#d67c4a" stroke="#d67c4a" stroke-width="1.51"/><path d="M392,568L379,756L484,719Z" fill="#ff9e4f" stroke="#ff9e4f" stroke-width="1.51"/><path d="M362,112L391,216L468,191Z" fill="#fed571" stroke="#fed571" stroke-width="1.51"/><path d="M375,323L396,438L471,347Z" fill="#ffc15d" stroke="#ffc15d" stroke-width="1.51"/><path d="M266,597L278,756L379,756Z" fill="#ffa155" stroke="#ffa155" stroke-width="1.51"/><path d="M379,756L278,756L390,897Z" fill="#fe954e" stroke="#fe954e" stroke-width="1.51"/><path d="M278,756L237,869L390,897Z" fill="#fc944f" stroke="#fc944f" stroke-width="1.51"/><path d="M268,251L375,323L391,216Z" fill="#ffcf6c" stroke="#ffcf6c" stroke-width="1.51"/><path d="M266,597L379,756L392,568Z" fill="#ffa855" stroke="#ffa855" stroke-width="1.51"/><path d="M281,480L392,568L396,438Z" fill="#ffb95c" stroke="#ffb95c" stroke-width="1.51"/><path d="M390,897L261,1012L406,1014Z" fill="#f28949" stroke="#f28949" stroke-width="1.51"/><path d="M261,1012L349,1130L406,1014Z" fill="#ea864c" stroke="#ea864c" stroke-width="1.51"/><path d="M256,-38L361,-16L408,-178Z" fill="#ffe591" stroke="#ffe591" stroke-width="1.51"/><path d="M252,-203L256,-38L408,-178Z" fill="#ffea9b" stroke="#ffea9b" stroke-width="1.51"/><path d="M375,323L267,317L396,438Z" fill="#ffc563" stroke="#ffc563" stroke-width="1.51"/><path d="M267,317L281,480L396,438Z" fill="#ffc263" stroke="#ffc263" stroke-width="1.51"/><path d="M361,-16L250,51L362,112Z" fill="#ffdf85" stroke="#ffdf85" stroke-width="1.51"/><path d="M237,869L261,1012L390,897Z" fill="#f88d4c" stroke="#f88d4c" stroke-width="1.51"/><path d="M362,112L268,251L391,216Z" fill="#fed674" stroke="#fed674" stroke-width="1.51"/><path d="M281,480L266,597L392,568Z" fill="#ffb55d" stroke="#ffb55d" stroke-width="1.51"/><path d="M349,1130L247,1140L359,1242Z" fill="#db814f" stroke="#db814f" stroke-width="1.51"/><path d="M268,251L267,317L375,323Z" fill="#ffcd6b" stroke="#ffcd6b" stroke-width="1.51"/><path d="M261,1012L247,1140L349,1130Z" fill="#e78651" stroke="#e78651" stroke-width="1.51"/><path d="M247,1140L276,1270L359,1242Z" fill="#d47f51" stroke="#d47f51" stroke-width="1.51"/><path d="M256,-38L250,51L361,-16Z" fill="#ffe38d" stroke="#ffe38d" stroke-width="1.51"/><path d="M250,51L268,251L362,112Z" fill="#ffdc7e" stroke="#ffdc7e" stroke-width="1.51"/><path d="M121,57L101,184L250,51Z" fill="#ffe38b" stroke="#ffe38b" stroke-width="1.51"/><path d="M78,-180L139,-23L252,-203Z" fill="#ffeea5" stroke="#ffeea5" stroke-width="1.51"/><path d="M252,-203L139,-23L256,-38Z" fill="#ffea9c" stroke="#ffea9c" stroke-width="1.51"/><path d="M153,1020L247,1140L261,1012Z" fill="#eb8a54" stroke="#eb8a54" stroke-width="1.51"/><path d="M237,869L153,1020L261,1012Z" fill="#f48e52" stroke="#f48e52" stroke-width="1.51"/><path d="M104,583L81,730L266,597Z" fill="#ffaf64" stroke="#ffaf64" stroke-width="1.51"/><path d="M250,51L101,184L268,251Z" fill="#ffdd81" stroke="#ffdd81" stroke-width="1.51"/><path d="M247,1140L86,1259L276,1270Z" fill="#d38257" stroke="#d38257" stroke-width="1.51"/><path d="M103,826L237,869L278,756Z" fill="#ff9957" stroke="#ff9957" stroke-width="1.51"/><path d="M266,597L81,730L278,756Z" fill="#ffa55d" stroke="#ffa55d" stroke-width="1.51"/><path d="M129,512L266,597L281,480Z" fill="#ffba64" stroke="#ffba64" stroke-width="1.51"/><path d="M267,317L85,371L281,480Z" fill="#ffc76b" stroke="#ffc76b" stroke-width="1.51"/><path d="M85,371L129,512L281,480Z" fill="#ffc36c" stroke="#ffc36c" stroke-width="1.51"/><path d="M81,730L103,826L278,756Z" fill="#ff9e5d" stroke="#ff9e5d" stroke-width="1.51"/><path d="M153,1020L118,1089L247,1140Z" fill="#e98a58" stroke="#e98a58" stroke-width="1.51"/><path d="M139,-23L250,51L256,-38Z" fill="#ffe692" stroke="#ffe692" stroke-width="1.51"/><path d="M129,512L104,583L266,597Z" fill="#ffb867" stroke="#ffb867" stroke-width="1.51"/><path d="M101,184L85,371L267,317Z" fill="#ffd377" stroke="#ffd377" stroke-width="1.51"/><path d="M101,184L267,317L268,251Z" fill="#ffd477" stroke="#ffd477" stroke-width="1.51"/><path d="M118,1089L86,1259L247,1140Z" fill="#de875a" stroke="#de875a" stroke-width="1.51"/><path d="M139,-23L121,57L250,51Z" fill="#ffe692" stroke="#ffe692" stroke-width="1.51"/><path d="M103,826L153,1020L237,869Z" fill="#fa9356" stroke="#fa9356" stroke-width="1.51"/><path d="M13,-170L-7,-11L78,-180Z" fill="#fff2ac" stroke="#fff2ac" stroke-width="1.51"/><path d="M21,244L85,371L101,184Z" fill="#ffd880" stroke="#ffd880" stroke-width="1.51"/><path d="M-35,902L-6,986L103,826Z" fill="#fb9860" stroke="#fb9860" stroke-width="1.51"/><path d="M85,371L-11,477L129,512Z" fill="#ffc673" stroke="#ffc673" stroke-width="1.51"/><path d="M78,-180L-7,-11L139,-23Z" fill="#ffeea4" stroke="#ffeea4" stroke-width="1.51"/><path d="M-6,986L118,1089L153,1020Z" fill="#ef905d" stroke="#ef905d" stroke-width="1.51"/><path d="M103,826L-6,986L153,1020Z" fill="#f8935b" stroke="#f8935b" stroke-width="1.51"/><path d="M-40,1128L-34,1215L86,1259Z" fill="#d98964" stroke="#d98964" stroke-width="1.51"/><path d="M21,725L81,730L104,583Z" fill="#ffac67" stroke="#ffac67" stroke-width="1.51"/><path d="M-40,1128L86,1259L118,1089Z" fill="#df8a61" stroke="#df8a61" stroke-width="1.51"/><path d="M-7,-11L121,57L139,-23Z" fill="#ffea9b" stroke="#ffea9b" stroke-width="1.51"/><path d="M24,570L21,725L104,583Z" fill="#ffb46c" stroke="#ffb46c" stroke-width="1.51"/><path d="M-27,52L101,184L121,57Z" fill="#ffe692" stroke="#ffe692" stroke-width="1.51"/><path d="M24,570L104,583L129,512Z" fill="#ffbc6d" stroke="#ffbc6d" stroke-width="1.51"/><path d="M-11,477L24,570L129,512Z" fill="#ffc171" stroke="#ffc171" stroke-width="1.51"/><path d="M-34,1215L-116,1250L86,1259Z" fill="#d18766" stroke="#d18766" stroke-width="1.51"/><path d="M-7,-11L-27,52L121,57Z" fill="#ffea9c" stroke="#ffea9c" stroke-width="1.51"/><path d="M-6,986L-40,1128L118,1089Z" fill="#ec9062" stroke="#ec9062" stroke-width="1.51"/><path d="M21,244L-21,337L85,371Z" fill="#ffd47d" stroke="#ffd47d" stroke-width="1.51"/><path d="M-27,52L21,244L101,184Z" fill="#ffe38e" stroke="#ffe38e" stroke-width="1.51"/><path d="M81,730L21,725L103,826Z" fill="#ffa363" stroke="#ffa363" stroke-width="1.51"/><path d="M21,725L-35,902L103,826Z" fill="#ff9f64" stroke="#ff9f64" stroke-width="1.51"/><path d="M-21,337L-11,477L85,371Z" fill="#ffcd79" stroke="#ffcd79" stroke-width="1.51"/><path d="M-21,337L-123,446L-11,477Z" fill="#ffcd7d" stroke="#ffcd7d" stroke-width="1.51"/><path d="M-135,-155L-127,-15L-7,-11Z" fill="#fff3ae" stroke="#fff3ae" stroke-width="1.51"/><path d="M-135,-155L-7,-11L13,-170Z" fill="#fff4b1" stroke="#fff4b1" stroke-width="1.51"/><path d="M-109,756L-35,902L21,725Z" fill="#ffa36a" stroke="#ffa36a" stroke-width="1.51"/><path d="M-135,611L-109,756L21,725Z" fill="#ffae71" stroke="#ffae71" stroke-width="1.51"/><path d="M-27,52L-126,179L21,244Z" fill="#ffe694" stroke="#ffe694" stroke-width="1.51"/><path d="M-135,611L21,725L24,570Z" fill="#ffb571" stroke="#ffb571" stroke-width="1.51"/><path d="M-11,477L-135,611L24,570Z" fill="#ffc077" stroke="#ffc077" stroke-width="1.51"/><path d="M-109,756L-118,882L-35,902Z" fill="#ffa06b" stroke="#ffa06b" stroke-width="1.51"/><path d="M-126,179L-21,337L21,244Z" fill="#ffdc8a" stroke="#ffdc8a" stroke-width="1.51"/><path d="M-140,991L-40,1128L-6,986Z" fill="#f09467" stroke="#f09467" stroke-width="1.51"/><path d="M-144,383L-123,446L-21,337Z" fill="#ffd182" stroke="#ffd182" stroke-width="1.51"/><path d="M-123,446L-135,611L-11,477Z" fill="#ffc67c" stroke="#ffc67c" stroke-width="1.51"/><path d="M-127,-15L-27,52L-7,-11Z" fill="#ffeea5" stroke="#ffeea5" stroke-width="1.51"/><path d="M-35,902L-140,991L-6,986Z" fill="#f89765" stroke="#f89765" stroke-width="1.51"/><path d="M-126,179L-144,383L-21,337Z" fill="#ffd989" stroke="#ffd989" stroke-width="1.51"/><path d="M-172,72L-126,179L-27,52Z" fill="#ffeb9f" stroke="#ffeb9f" stroke-width="1.51"/><path d="M-140,991L-182,1087L-40,1128Z" fill="#ed946c" stroke="#ed946c" stroke-width="1.51"/><path d="M-118,882L-140,991L-35,902Z" fill="#fc9a68" stroke="#fc9a68" stroke-width="1.51"/><path d="M-40,1128L-116,1250L-34,1215Z" fill="#da8c69" stroke="#da8c69" stroke-width="1.51"/><path d="M-127,-15L-172,72L-27,52Z" fill="#ffefa6" stroke="#ffefa6" stroke-width="1.51"/><path d="M-182,1087L-116,1250L-40,1128Z" fill="#e28f6c" stroke="#e28f6c" stroke-width="1.51"/><path d="M-135,611L-118,882L-109,756Z" fill="#ffa972" stroke="#ffa972" stroke-width="1.51"/><path d="M-135,611L-182,1087L-118,882Z" fill="#ffa16e" stroke="#ffa16e" stroke-width="1.51"/><path d="M-182,1087L-140,991L-118,882Z" fill="#f6996c" stroke="#f6996c" stroke-width="1.51"/><path d="M-172,72L-144,383L-126,179Z" fill="#ffe496" stroke="#ffe496" stroke-width="1.51"/><path d="M-144,383L-135,611L-123,446Z" fill="#ffca81" stroke="#ffca81" stroke-width="1.51"/><path d="M-135,-155L-172,72L-127,-15Z" fill="#fff3b0" stroke="#fff3b0" stroke-width="1.51"/><path d="M-144,383L-182,1087L-135,611Z" fill="#ffb177" stroke="#ffb177" stroke-width="1.51"/><path d="M-172,72L-182,1087L-144,383Z" fill="#ffc781" stroke="#ffc781" stroke-width="1.51"/></svg>