<?xml version="1.0" encoding="UTF-8" standalone="no"?>
<!DOCTYPE svg PUBLIC "-//W3C//DTD SVG 1.1//EN" "http://www.w3.org/Graphics/SVG/1.1/DTD/svg11.dtd">
<svg width="100%" height="100%" viewBox="0 0 200 200" version="1.1" xmlns="http://www.w3.org/2000/svg" xmlns:xlink="http://www.w3.org/1999/xlink" xml:space="preserve" style="fill-rule:evenodd;clip-rule:evenodd;stroke-linejoin:round;stroke-miterlimit:1.41421;">
    <g transform="matrix(2,0,0,2,0.0494714,-0.0494714)">
        <g transform="matrix(1.00237,0,0,1.00237,0.0423618,-0.318345)">
            <circle cx="49.923" cy="50.116" r="49.882" style="fill:rgb(85,87,89);"/>
        </g>
        <g transform="matrix(1,0,0,1,-0.194244,4.58468)">
            <g transform="matrix(0.429542,0,0,0.429542,11.3702,12.9404)">
                <g transform="matrix(0.557341,0,0,0.60616,-56.5348,-80.5094)">
                    <g transform="matrix(0.610632,0,0,0.561453,49.7416,147.515)">
                        <text x="158.514px" y="412.443px" style="font-family:'Aclonica-Regular', 'Aclonica', serif;font-size:92.348px;fill:none;">R<tspan x="224.574px 300.644px 356.918px " y="412.443px 412.443px 412.443px ">OYA</tspan>LE</text>
                    </g>
                    <g transform="matrix(0.610632,0,0,0.561453,49.7416,147.515)">
                        <text x="158.514px" y="412.443px" style="font-family:'Aclonica-Regular', 'Aclonica', serif;font-size:92.348px;fill:rgb(254,255,254);">R<tspan x="224.574px 300.644px 356.918px " y="412.443px 412.443px 412.443px ">OYA</tspan>LE</text>
                    </g>
                </g>
                <g transform="matrix(0.349422,0,0,0.349422,-2.03649,-16.2662)">
                    <g transform="matrix(0.643593,0,0,0.643593,45.5309,119.886)">
                        <text x="156.888px" y="408.856px" style="font-family:'Aclonica-Regular', 'Aclonica', serif;font-size:87.994px;fill:none;">A<tspan x="226.234px " y="408.856px ">p</tspan>ache</text>
                    </g>
                    <g transform="matrix(0.643593,0,0,0.643593,45.5309,119.886)">
                        <text x="156.888px" y="408.856px" style="font-family:'Aclonica-Regular', 'Aclonica', serif;font-size:87.994px;fill:rgb(254,255,254);">A<tspan x="226.234px " y="408.856px ">p</tspan>ache</text>
                    </g>
                </g>
                <g transform="matrix(0.0697017,0,0,0.180251,144.281,60.427)">
                    <g transform="matrix(1.66435,0,0,0.643593,-84.8707,119.886)">
                        <text x="138.691px" y="410.761px" style="font-family:'Aclonica-Regular', 'Aclonica', serif;font-size:90.306px;fill:none;">T<tspan x="190.326px " y="410.761px ">M</tspan></text>
                    </g>
                    <g transform="matrix(1.66435,0,0,0.643593,-84.8707,119.886)">
                        <text x="138.691px" y="410.761px" style="font-family:'Aclonica-Regular', 'Aclonica', serif;font-size:90.306px;fill:rgb(254,255,254);">T<tspan x="190.326px " y="410.761px ">M</tspan></text>
                    </g>
                </g>
            </g>
            <g transform="matrix(0.424635,0,0,0.424635,-5.72869,-12.0435)">
                <g transform="matrix(0.5,0,0,0.5,0,0.406773)">
                    <path d="M240.415,164.062C236.546,159.039 234.308,152.779 234.308,146.128C234.308,129.907 247.478,116.737 263.699,116.737C279.92,116.737 293.09,129.907 293.09,146.128C293.09,152.729 290.886,158.939 287.078,163.939L337.199,232.644L386.955,199.797C386.757,198.421 386.656,197.026 386.656,195.621C386.656,179.4 399.826,166.23 416.047,166.23C432.268,166.23 445.438,179.4 445.438,195.621C445.438,209.881 435.26,221.783 421.778,224.452L405.39,288.553C412.598,293.909 417.268,302.488 417.268,312.158C417.268,328.379 404.098,341.549 387.877,341.549C371.656,341.549 358.486,328.379 358.486,312.158C358.486,306.778 359.954,301.629 362.588,297.183L332.745,256.329L289.888,284.708C311.375,286.632 333.384,290.827 356.798,297.283C353.769,301.678 352.717,307.122 353.235,313.357C288.124,296.144 235.229,296.382 173.992,313.342C174.286,307.579 173.657,302.043 171.111,297.213C194.134,290.61 216.008,286.395 237.673,284.555L194.57,256.066L164.889,296.866C167.642,301.385 169.181,306.651 169.181,312.158C169.181,328.379 156.011,341.549 139.79,341.549C123.569,341.549 110.399,328.379 110.399,312.158C110.399,302.878 114.712,294.56 121.486,289.162L105.226,224.495C91.636,221.911 81.348,209.958 81.348,195.621C81.348,179.4 94.518,166.23 110.739,166.23C126.96,166.23 140.129,179.4 140.129,195.621C140.129,196.986 140.034,198.342 139.848,199.68L190.348,233.04L240.415,164.062ZM375.693,285.412L375.75,285.386L381.814,298.772C376.558,301.153 373.182,306.389 373.182,312.158C373.182,320.269 379.766,326.854 387.877,326.854C395.988,326.854 402.572,320.269 402.572,312.158C402.572,304.042 395.993,297.463 387.877,297.463L387.877,282.797L387.873,282.795L387.877,282.781L387.877,282.768L387.881,282.768L403.321,222.114L403.29,222.099L409.669,208.86C411.658,209.819 413.839,210.316 416.047,210.316C424.158,210.316 430.743,203.732 430.743,195.621C430.743,187.511 424.158,180.926 416.047,180.926C407.937,180.926 401.352,187.511 401.352,195.621C401.352,199.304 402.734,202.852 405.226,205.563L394.456,215.458L394.459,215.463L394.43,215.482L394.404,215.506L394.4,215.501L347.398,246.626L375.693,285.412ZM180.422,246.715L132.683,215.162L132.69,215.147L121.719,205.388C124.112,202.698 125.434,199.222 125.434,195.621C125.434,187.511 118.849,180.926 110.739,180.926C102.628,180.926 96.043,187.511 96.043,195.621C96.043,203.732 102.628,210.316 110.739,210.316C112.85,210.316 114.936,209.862 116.856,208.983L122.95,222.294L122.96,222.292L138.165,282.812L138.174,282.812L138.177,282.857L138.178,282.863C138.181,282.867 138.181,282.872 138.178,282.878L138.982,297.485C131.192,297.914 125.095,304.356 125.095,312.158C125.095,320.269 131.679,326.854 139.79,326.854C147.9,326.854 154.485,320.269 154.485,312.158C154.485,306.453 151.183,301.263 146.014,298.846L152.239,285.534L152.245,285.537L180.422,246.715ZM322.522,242.333L272.675,174.09L272.689,174.08L268.198,160.117C274.274,158.163 278.394,152.51 278.394,146.128C278.394,138.017 271.81,131.432 263.699,131.432C255.588,131.432 249.004,138.017 249.004,146.128C249.004,152.429 253.02,158.028 258.989,160.048L254.286,173.943L254.303,173.956L204.513,242.397L263.45,281.33L322.522,242.333Z" style="fill:rgb(254,255,254);"/>
                </g>
                <g transform="matrix(1.17748,0,0,1.17748,13.9483,17.5652)">
                    <path d="M64.772,90.187L61.388,94.858L67.19,99.089L70.777,94.169L64.772,90.187Z" style="fill:rgb(254,255,254);fill-opacity:0.697902;"/>
                </g>
                <g transform="matrix(1.17748,0,0,1.17748,23.1364,4.9136)">
                    <path d="M64.767,90.188L61.178,95.132L67.195,99.103L70.777,94.175L64.767,90.188Z" style="fill:rgb(254,255,254);fill-opacity:0.697902;"/>
                </g>
                <g transform="matrix(1.17748,0,0,1.17748,97.7277,5.21976)">
                    <path d="M65.971,90.886L60.19,94.701L64.522,100.638L70.445,96.715L65.971,90.886Z" style="fill:rgb(254,255,254);fill-opacity:0.697902;"/>
                </g>
                <g transform="matrix(1.17748,0,0,1.17748,80.3321,15.8227)">
                    <path d="M68.731,89.811L62.876,93.676L66.952,99.805L73.073,95.753L68.731,89.811Z" style="fill:rgb(254,255,254);fill-opacity:0.697902;"/>
                </g>
            </g>
        </g>
    </g>
</svg>
